<?xml version="1.0" standalone="no"?>
<!DOCTYPE svg PUBLIC "-//W3C//DTD SVG 1.1//EN" "http://www.w3.org/Graphics/SVG/1.1/DTD/svg11.dtd" >
<svg>
<metadata>
Created by FontForge 20110222 at Mon Mar  7 10:36:20 2011
 By www-data
The programs to draw the splines of this font are copyright (c) 1992-1998 by George Williams
</metadata>
<defs>
<font id="CaslonBold" horiz-adv-x="0" >
  <font-face 
    font-family="Caslon"
    font-weight="700"
    font-stretch="normal"
    units-per-em="1000"
    panose-1="2 0 8 2 0 0 0 0 0 0"
    ascent="800"
    descent="-200"
    x-height="463"
    cap-height="661"
    bbox="-380 -241 1444 858"
    underline-thickness="16"
    underline-position="-97"
    unicode-range="U+0020-2122"
  />
    <missing-glyph />
    <glyph glyph-name="space" unicode=" " horiz-adv-x="236" 
 />
    <glyph glyph-name="exclam" unicode="!" horiz-adv-x="282" 
d="M99 704q4 9 12 9l8 -2q3 -2 5 -7q39 -75 43 -85q10 -28 10 -64q0 -67 -29 -176q-26 -99 -26 -166q0 -21 -9 -23l-5 2q-6 5 -6 21q0 67 -29 176q-26 99 -26 166q0 46 28 101q19 37 24 48zM37 74q0 48 37 70q16 10 35 10q44 0 67 -39q11 -19 11 -41q0 -45 -38 -68
q-17 -11 -37 -11q-44 0 -65 40q-10 18 -10 39z" />
    <glyph glyph-name="quotedbl" unicode="&#x22;" horiz-adv-x="257" 
d="M200 661l-14 -122h-31l-14 122h59zM104 661l-14 -122h-31l-14 122h59z" />
    <glyph glyph-name="numbersign" unicode="#" horiz-adv-x="469" 
d="M487 422h-120l-27 -165h104v-44h-109l-25 -170h-44l25 170h-139l-25 -170h-44l25 170h-108v44h113l26 165h-96v44h101l26 159h44l-26 -159h139l26 159h44l-26 -159h116v-44zM323 422h-140l-26 -165h139z" />
    <glyph glyph-name="dollar" unicode="$" horiz-adv-x="618" 
d="M207 411l28 177l-1 11q-2 4 -13 4q-66 0 -103 -45q-20 -24 -20 -52q0 -69 92 -103h9q7 2 8 8zM315 382l29 178l-1 14q-2 6 -7 8q-29 14 -57 18l-10 -2q-6 -3 -8 -12l-29 -180l3 -12q3 -7 8 -8q20 -6 29 -8l23 -7h1h10q8 3 9 11zM260 42l35 212l-2 13q-3 4 -6 5l-58 15
l-8 -1q-9 -5 -12 -21l-31 -195l-1 -12l7 -3q34 -15 64 -22q10 -3 12 9zM320 247l-34 -208l1 -9q3 -3 9 -4l24 -1h1q65 0 103 52q24 32 24 72q0 75 -108 109h-10q-9 -4 -10 -11zM360 659q2 15 15 16q5 0 8 -3q4 -4 4 -12l-5 -27q0 -9 7 -10q36 -10 75 -34q24 -14 24 -38
q0 -17 -18 -26q-5 -3 -10 -3q-21 0 -76 33l-8 2q-6 -2 -8 -13l-28 -169l3 -12q4 -7 11 -10q120 -41 149 -116q11 -28 11 -63q0 -90 -94 -142q-57 -30 -130 -36q-10 -1 -12 -13l-13 -77q-2 -13 -15 -14l-8 2q-4 3 -4 9v4l13 74l-1 8q-3 5 -10 5q-41 0 -61 2l-9 -2
q-4 -2 -5 -9l-14 -79q-2 -14 -16 -14q-5 0 -8 3q-2 3 -2 12l14 83l-2 10q-2 4 -6 5q-56 12 -97 47q-15 13 -15 36q0 20 19 30q6 3 12 3q11 0 45 -21q3 -2 5 -3l41 -21l7 -1q4 2 6 8q31 197 32 201l-1 12q-2 6 -7 8q-104 40 -122 125q-5 21 -5 45q0 78 85 127q45 26 97 33
q10 2 11 10l3 15q2 15 14 15l8 -2q4 -4 4 -12l-2 -16l1 -6q2 -2 5 -2q40 0 68 -4l9 2q2 1 3 5z" />
    <glyph glyph-name="percent" unicode="%" horiz-adv-x="954" 
d="M176 3l540 707q8 10 19 10l9 -2q4 -3 5 -9l-4 -11q-1 -3 -3 -5l-544 -707q-8 -10 -17 -11l-7 3q-4 3 -4 10t6 15zM585 204q0 -102 53 -160q31 -35 70 -35q58 0 95 70q28 54 28 125q0 102 -52 160q-32 36 -71 36q-57 0 -94 -70q-29 -55 -29 -126zM500 206q0 97 73 160
q58 51 135 51q95 0 157 -72q51 -60 51 -139q0 -97 -73 -160q-58 -51 -135 -51q-95 0 -157 72q-51 60 -51 139zM76 491q0 -102 52 -160q32 -36 71 -36q57 0 94 70q29 55 29 126q0 102 -52 160q-32 36 -71 36q-57 0 -94 -70q-29 -55 -29 -126zM-9 493q0 96 71 159
q59 52 137 52q95 0 158 -73q51 -59 51 -138q0 -97 -73 -160q-59 -51 -136 -51q-95 0 -157 72q-51 60 -51 139z" />
    <glyph glyph-name="ampersand" unicode="&#x26;" horiz-adv-x="1033" 
d="M440 462q55 30 60 95v10q0 69 -43 91q-14 7 -32 7q-46 0 -61 -48q-5 -15 -5 -33q0 -67 53 -115q12 -10 18 -10q4 0 10 3zM519 140l-18 37q-9 17 -49 72q-7 9 -12 17q-24 36 -89 100q-12 11 -19 19q-7 7 -13 7q-3 1 -11 -2q-119 -41 -136 -127q-3 -15 -3 -33
q0 -100 78 -146q45 -27 108 -28l34 3q48 10 127 57q14 8 3 24zM904 148l12 22q3 2 6 2q8 0 8 -8q0 -5 -3 -16q-24 -98 -114 -138q-44 -19 -95 -19h-10q-99 4 -165 106q-3 4 -6 4t-9 -4q-144 -95 -252 -97q-114 0 -177 73q-46 54 -46 132q0 127 158 186q34 13 74 21
q12 3 12 10l-2 8q-30 51 -30 94q0 95 66 140q35 24 81 24q76 0 121 -49q30 -33 30 -77q0 -63 -74 -107q-12 -6 -29 -15q-7 -4 -7 -11q0 -6 5 -11l47 -50q44 -50 79 -102l38 -62q4 -8 8 -8q3 0 8 5q55 55 55 99q-3 46 -54 64q-19 6 -39 6q-16 0 -19 12l2 7q4 5 17 5l207 2
q41 -1 69 -2q16 -1 17 -8l-2 -6q-4 -5 -13 -6q-37 -6 -100 -65l-119 -116q-4 -4 -9 -8q-6 -5 -6 -13q0 -5 2 -8q42 -66 93 -77l32 -3h4q79 4 118 49q7 7 11 15z" />
    <glyph glyph-name="quotesingle" unicode="'" horiz-adv-x="197" 
d="M156 543q-26 -68 -92 -92q-10 -4 -20 -6l-14 17q26 6 43 32q8 11 8 21l-3 13q-1 2 -2 3q-26 15 -26 49q0 39 32 55q12 5 26 5h5q43 -3 53 -43l1 -23q-1 -18 -11 -31z" />
    <glyph glyph-name="parenleft" unicode="(" horiz-adv-x="354" 
d="M244 648q20 23 22 29l-2 3l-14 -7q-7 -5 -18 -13q-120 -92 -177 -232q-36 -89 -36 -183q0 -185 130 -336q38 -45 83 -79q25 -19 32 -19l2 1q0 4 -12 18q-4 6 -10 12q-114 129 -131 298q-4 42 -4 105q0 150 34 241q32 85 101 162z" />
    <glyph glyph-name="parenright" unicode=")" horiz-adv-x="354" 
d="M53 648q-20 23 -22 29l2 3l14 -7q7 -5 18 -13q120 -92 177 -232q36 -89 36 -183q0 -185 -130 -336q-38 -45 -83 -79q-25 -19 -32 -19l-2 1q0 4 12 18q4 6 10 12q114 129 131 298q4 42 4 105q0 150 -34 241q-32 85 -101 162z" />
    <glyph glyph-name="asterisk" unicode="*" horiz-adv-x="462" 
d="M390 387q5 -8 5 -15q0 -18 -36 -39q-20 -11 -74 -26q-18 -6 -29 -12q10 -6 59 -20q22 -6 39 -16q36 -21 37 -43l-4 -14l-1 -2q-8 -14 -22 -14q-15 0 -40 14q-22 13 -54 47q-16 17 -28 24q0 -13 12 -53q7 -22 7 -42q0 -57 -35 -57q-31 0 -31 54q0 23 13 68q5 16 5 30
q-10 -6 -42 -37q-22 -22 -43 -34q-25 -14 -39 -14t-23 14q-5 8 -5 16q1 21 37 43q17 10 67 22q21 6 33 13q-9 6 -53 17q-26 7 -47 19q-36 21 -36 41q0 8 5 16q8 14 27 14l22 -4q9 -3 18 -8q17 -10 51 -45q16 -17 29 -24l-3 24l-14 44q-2 13 -2 27q5 51 31 54q35 0 35 -57
q0 -20 -13 -60q-6 -18 -6 -33q13 7 44 40q19 20 37 30q23 13 40 13l15 -3q8 -4 12 -12z" />
    <glyph glyph-name="plus" unicode="+" horiz-adv-x="304" 
d="M326 245h-123v-125h-47v125h-123v48h123v120h47v-120h123v-48z" />
    <glyph glyph-name="comma" unicode="," horiz-adv-x="299" 
d="M137 -18l4 14q-1 4 -11 4q-47 0 -69 37q-10 17 -10 37q0 46 40 68q17 9 36 9q43 0 69 -45q18 -30 18 -70q0 -66 -62 -104q-35 -22 -81 -27l-15 1q-7 3 -7 9l3 8q6 7 17 7l19 4q36 13 46 38q3 5 3 10z" />
    <glyph glyph-name="hyphen" unicode="-" horiz-adv-x="236" 
d="M252 196h-219v58h219v-58z" />
    <glyph glyph-name="period" unicode="." horiz-adv-x="344" 
d="M55 79q0 48 37 70q16 10 35 10q44 0 67 -39q11 -19 11 -41q0 -45 -38 -68q-17 -11 -37 -11q-44 0 -65 40q-10 18 -10 39z" />
    <glyph glyph-name="slash" unicode="/" horiz-adv-x="369" 
d="M396 615l-330 -635h-66l330 635h66z" />
    <glyph glyph-name="zero" unicode="0" horiz-adv-x="489" 
d="M244 0q-111 0 -168 113q-40 77 -40 178q0 136 67 220q56 70 141 70q113 0 171 -114q38 -76 38 -175q0 -137 -67 -221q-56 -71 -142 -71zM244 19q62 0 92 114q19 69 19 158q0 153 -48 229q-27 42 -63 42q-62 0 -92 -114q-19 -69 -19 -158q0 -153 48 -229q27 -42 63 -42z
" />
    <glyph glyph-name="one" unicode="1" horiz-adv-x="489" 
d="M357 0h-225v19h47q20 0 24 21q1 3 1 6v483h-40v18l120 34v-535q0 -17 17 -25q5 -2 9 -2h47v-19z" />
    <glyph glyph-name="two" unicode="2" horiz-adv-x="489" 
d="M416 140l-23 -140h-310v62q0 62 68 139l79 90q63 77 66 148l-2 28q-11 51 -61 67q-13 4 -27 5l-28 -2q-55 -12 -80 -75q-5 -13 -8 -28h-17q6 82 72 123q38 24 86 24q105 0 148 -57q22 -28 22 -68q0 -96 -104 -186l-109 -88q-22 -20 -32 -36q-10 -17 -17 -37q-1 -3 -2 -7
h251l10 38h18z" />
    <glyph glyph-name="three" unicode="3" horiz-adv-x="489" 
d="M324 143l-2 28q-12 60 -73 103q-36 25 -64 25h-23v29q20 4 35 12q66 35 66 108q0 7 -1 14q-4 50 -55 63l-28 4q-53 -1 -76 -37q-10 -16 -10 -35h-17q0 71 71 103q33 15 73 15h7q79 -3 113 -56q15 -21 15 -46q0 -27 -16 -51q-11 -18 -30 -33q-23 -19 -25 -20l-4 -2l2 -13
l11 -10l1 -1q93 -36 117 -116q7 -22 7 -45q0 -81 -70 -135q-63 -47 -159 -50l-29 3q-55 12 -79 58q-10 19 -10 41v5q4 50 41 61l19 1q31 -4 39 -35l2 -18q-1 -44 -41 -44h-9q10 -19 36 -39q13 -10 35 -10l29 4q60 15 88 68q12 24 14 51z" />
    <glyph glyph-name="four" unicode="4" horiz-adv-x="489" 
d="M477 109h-58v-109h-84v109h-323l347 472h60v-388h58v-84zM334 193v281l-205 -281h205z" />
    <glyph glyph-name="five" unicode="5" horiz-adv-x="489" 
d="M423 172q-4 -77 -75 -134q-62 -50 -137 -50q-9 0 -18 1q-67 6 -105 50q-21 25 -21 54q0 59 48 64h18q28 -4 35 -34l1 -21q-5 -30 -37 -40q-8 -2 -16 -2q27 -33 75 -38h31q64 10 99 69q21 35 21 74q0 79 -75 115q-38 18 -84 18q-51 0 -90 -22v304h233q35 0 43 14l5 9h7
l-7 -88h-233v-153q40 21 84 21q59 0 111 -36q75 -53 86 -142z" />
    <glyph glyph-name="six" unicode="6" horiz-adv-x="489" 
d="M270 581l1 -26l-60 -50q-34 -33 -55 -92q-19 -56 -19 -102q45 65 108 65q125 -1 181 -88q29 -45 29 -99q0 -40 -16 -77q-37 -84 -134 -106q-28 -6 -60 -6q-151 0 -196 125q-16 43 -16 97q1 119 64 224q41 68 91 94l65 34q8 4 17 7zM245 17q64 0 95 80q15 41 15 91
q0 53 -17 95q-30 72 -93 73l-26 -3q-60 -18 -79 -106q-6 -27 -6 -57q1 -94 47 -144q27 -29 64 -29z" />
    <glyph glyph-name="seven" unicode="7" horiz-adv-x="489" 
d="M431 581l-166 -581h-99l176 494h-194q-40 0 -49 -5q-12 -8 -12 -28v-31l-27 12l-1 139h372z" />
    <glyph glyph-name="eight" unicode="8" horiz-adv-x="489" 
d="M432 160l-2 -33q-14 -70 -85 -108q-42 -22 -89 -22q-98 0 -156 60q-43 42 -43 104q1 64 77 115q9 6 45 28q-61 50 -80 80q-17 28 -18 57l3 27q15 58 83 93q44 22 88 22q71 0 113 -52q25 -31 26 -67l-3 -31q-11 -48 -77 -89q-10 -6 -33 -19q87 -52 116 -84q33 -37 35 -81z
M350 471q-2 43 -44 75q-25 19 -51 20l-25 -2q-44 -12 -62 -56q-7 -17 -7 -39q2 -68 99 -130q61 38 78 73q12 24 12 54v5zM350 145q-1 43 -62 86l-89 59q-67 -45 -76 -91q-2 -9 -2 -19q0 -84 47 -130q35 -33 88 -33q60 0 84 62q10 27 10 60v6z" />
    <glyph glyph-name="nine" unicode="9" horiz-adv-x="489" 
d="M359 261q-45 -65 -108 -65q-128 1 -184 88q-28 44 -28 97q0 87 66 142q57 49 146 49q147 0 187 -123q12 -38 12 -85q0 -120 -68 -232q-33 -55 -74 -88q-46 -37 -82 -53l3 28q84 69 108 134l2 6q20 54 20 102zM251 216l26 3q60 18 79 106q6 27 6 57q-1 94 -47 144
q-27 29 -64 29q-64 0 -95 -80q-15 -41 -15 -91q0 -53 17 -95q30 -72 93 -73z" />
    <glyph glyph-name="colon" unicode=":" horiz-adv-x="299" 
d="M55 345q0 -47 39 -69q16 -10 36 -10q43 0 65 39q10 19 10 40q0 46 -40 69q-18 10 -38 10q-43 0 -63 -41q-9 -17 -9 -38zM55 79q0 -46 39 -69q16 -10 36 -10q43 0 65 40q10 18 10 39q0 45 -39 69q-18 11 -39 11q-44 0 -64 -42q-8 -18 -8 -38z" />
    <glyph glyph-name="semicolon" unicode=";" horiz-adv-x="299" 
d="M137 -18l4 14q-1 4 -11 4q-47 0 -69 37q-10 17 -10 37q0 46 40 68q17 9 36 9q43 0 69 -45q18 -30 18 -70q0 -66 -62 -104q-35 -22 -81 -27l-15 1q-7 3 -7 9l3 8q6 7 17 7l19 4q36 13 46 38q3 5 3 10zM55 345q0 48 38 70q16 9 34 9q45 0 67 -39q11 -19 11 -40
q0 -47 -39 -69q-17 -10 -36 -10q-45 0 -66 41q-9 17 -9 38z" />
    <glyph glyph-name="less" unicode="&#x3c;" horiz-adv-x="492" 
d="M457 74l-414 175v56l414 165v-61l-329 -127v-12l329 -134v-62z" />
    <glyph glyph-name="equal" unicode="=" horiz-adv-x="351" 
d="M312 308h-279v46h279v-46zM312 200h-279v46h279v-46z" />
    <glyph glyph-name="greater" unicode="&#x3e;" horiz-adv-x="457" 
d="M6 74l414 175v56l-414 165v-61l329 -127v-12l-329 -134v-62z" />
    <glyph glyph-name="question" unicode="?" horiz-adv-x="425" 
d="M53 66q0 45 38 66q16 9 34 9q42 0 62 -38q9 -17 9 -37q0 -44 -37 -65q-16 -9 -34 -9q-43 0 -63 39q-9 16 -9 35zM159 343q-18 -127 -23 -161q-2 -14 -11 -15l-7 3q-4 4 -5 13l-21 196l-5 44q1 24 19 27q104 20 120 24q86 27 86 89q0 51 -53 70q-19 6 -39 6q-26 0 -73 -27
q-30 -17 -48 -17q-30 0 -41 28q-3 8 -3 17q0 43 50 60q18 6 37 6q83 0 142 -55q49 -45 49 -108l-3 -31q-20 -86 -144 -135q-24 -11 -27 -34z" />
    <glyph glyph-name="at" unicode="@" horiz-adv-x="735" 
d="M723 134q-123 -151 -292 -151h-6q-237 4 -342 149q-62 86 -62 201q0 143 89 260q99 129 255 150q25 3 51 3q148 0 235 -113q74 -96 74 -237q0 -21 -2 -42q-11 -132 -77 -166q-18 -9 -39 -9q-6 0 -13 1q-70 10 -93 79q-25 -64 -74 -87q-19 -8 -39 -9l-47 2
q-113 13 -150 107q-14 34 -14 75q0 94 62 163q61 68 150 68h11q39 -2 74 -38q9 -8 13 -16l61 30v-280q0 -51 53 -56l16 2q39 16 51 109q3 22 3 44l-3 67q-20 182 -147 238q-47 21 -105 21l-50 -3q-134 -20 -216 -136q-70 -97 -70 -214q0 -42 10 -81q35 -136 169 -195
q72 -32 166 -37l53 1q82 7 165 75zM453 264v221q-36 30 -68 34h-5l-22 -2q-50 -14 -69 -91q-8 -30 -8 -62q0 -89 49 -128q23 -18 54 -18h7q26 2 51 33z" />
    <glyph glyph-name="A" unicode="A" horiz-adv-x="694" 
d="M721 0h-227v28h40q17 0 21 17l-1 13l-89 257h-195l-84 -207q-4 -9 -4 -20q0 -12 5 -25q14 -35 46 -35h37v-28h-233v28h36q33 0 59 45q3 7 6 13l223 531l-10 30l68 39l221 -618q9 -26 44 -37q10 -3 19 -3h18v-28zM456 342l-79 233l-96 -233h175z" />
    <glyph glyph-name="B" unicode="B" horiz-adv-x="556" 
d="M534 220l-3 -39q-15 -90 -95 -142q-58 -39 -130 -39h-284v27h53q21 0 32 23q3 7 3 14v533q0 21 -21 33q-7 4 -14 4h-53v27h318q170 0 170 -126q0 -104 -84 -153q105 -37 108 -162zM437 535q0 59 -53 83q-23 10 -49 10h-108q-28 0 -36 -36q-1 -7 -1 -14v-188h112
q71 0 111 61q24 37 24 84zM457 206q0 69 -46 117q-34 36 -77 36h-144v-276q0 -50 37 -50h72q73 0 124 73q34 50 34 100z" />
    <glyph glyph-name="C" unicode="C" horiz-adv-x="582" 
d="M561 228l-44 -224h-23l-2 15q-8 22 -30 22q-26 0 -84 -24q-44 -18 -74 -19l-53 2q-172 17 -219 196q-15 58 -15 127q0 139 68 238q81 118 226 118h4q64 -1 113 -38q22 -16 35 -16q21 3 48 44h18l11 -223h-20q-28 106 -95 170q-52 49 -113 49q-92 0 -152 -110
q-52 -96 -54 -219l3 -68q16 -153 90 -217q40 -34 92 -34q81 0 157 63q33 28 56 63q28 44 40 85h17z" />
    <glyph glyph-name="D" unicode="D" horiz-adv-x="704" 
d="M669 347l-4 -49q-19 -123 -119 -209q-104 -89 -242 -89h-281v27h53q21 0 32 23q3 7 3 14v533q0 21 -21 33q-7 4 -14 4h-53v27h381q154 0 224 -139q40 -78 41 -175zM582 359q-9 137 -81 213q-54 56 -130 56h-143q-26 0 -35 -34q-2 -8 -2 -16v-495q0 -33 22 -46q7 -4 15 -4
h94q118 0 194 101q66 87 67 203q0 11 -1 22z" />
    <glyph glyph-name="E" unicode="E" horiz-adv-x="615" 
d="M558 196l-52 -196h-484v27h53q21 0 32 23q3 7 3 14v533q0 21 -21 33q-7 4 -14 4h-53v27h492l44 -200h-23l-13 30q-45 104 -112 128q-24 9 -54 9h-128q-28 0 -36 -35q-2 -7 -2 -15v-200h100q47 0 80 40q19 24 19 52v18h21v-254h-21v18q0 46 -44 78q-26 20 -55 20h-100
v-267q0 -36 24 -47q6 -3 14 -3h128q111 0 166 132l13 31h23z" />
    <glyph glyph-name="F" unicode="F" horiz-adv-x="520" 
d="M519 470h-18l-7 32q-20 88 -91 114q-22 8 -48 8h-125q-27 0 -36 -35q-2 -8 -2 -16v-198h97q48 0 80 41q19 25 19 54v18h21v-254h-21v18q0 49 -46 78q-25 16 -53 16h-97v-282q0 -22 21 -33q7 -4 14 -4h53v-27h-256v27h53q21 0 32 23q4 7 4 14v533q0 22 -22 33q-7 4 -14 4
h-53v27h474z" />
    <glyph glyph-name="G" unicode="G" horiz-adv-x="596" 
d="M616 339h-45q-27 -6 -30 -44v-227l-38 14q-66 -83 -199 -88l-42 2q-110 17 -183 125q-65 95 -65 211q0 119 77 219q77 99 178 112l27 1q78 -1 127 -34q17 -12 37 -30l42 58h26l13 -218h-17q-27 97 -99 156q-56 46 -120 47q-7 0 -14 -1q-91 -7 -149 -120q-46 -90 -46 -198
q2 -136 66 -225q59 -83 153 -83h5q93 3 141 75v204q0 44 -33 44h-31v21h219v-21z" />
    <glyph glyph-name="H" unicode="H" horiz-adv-x="706" 
d="M698 0h-256v27h53q21 0 32 23q3 7 3 14v270h-317v-270q0 -24 22 -34q6 -3 13 -3h52v-27h-255v27h53q21 0 32 23q3 7 3 14v533q0 21 -21 33q-7 4 -14 4h-53v27h255v-27h-52q-23 0 -32 -24q-3 -6 -3 -13v-238h317v238q0 21 -21 33q-7 4 -14 4h-53v27h256v-27h-53
q-23 0 -32 -24q-3 -6 -3 -13v-533q0 -24 22 -34q6 -3 13 -3h53v-27z" />
    <glyph glyph-name="I" unicode="I" horiz-adv-x="308" 
d="M300 0h-255v27h53q21 0 32 23q3 7 3 14v533q0 21 -21 33q-7 4 -14 4h-53v27h255v-27h-52q-23 0 -32 -24q-3 -6 -3 -13v-533q0 -24 22 -34q6 -3 13 -3h52v-27z" />
    <glyph glyph-name="J" unicode="J" horiz-adv-x="325" 
d="M348 634h-53q-23 0 -32 -24q-3 -6 -3 -13v-464q0 -126 -59 -192q-42 -47 -107 -47q-68 0 -83 47q-3 11 -3 23q0 28 26 46q11 8 22 8q28 0 43 -30q5 -10 5 -18q0 -37 -41 -48q12 -10 31 -10q6 0 11 1q57 13 72 113q3 22 3 45v526q0 21 -21 33q-7 4 -14 4h-53v27h256v-27z
" />
    <glyph glyph-name="K" unicode="K" horiz-adv-x="677" 
d="M669 0h-220v28h30q15 0 15 13l-4 17q-2 5 -5 10l-198 292l-80 -80v-216q0 -24 21 -34q6 -3 13 -3h53v-27h-255v27h52q22 0 33 23q3 7 3 14v533q0 22 -21 33q-8 4 -15 4h-52v27h255v-27h-53q-22 0 -31 -24q-3 -6 -3 -13v-286l196 203q42 44 46 80l-2 17q-8 22 -49 22h-19
v28h242v-28q-93 -21 -205 -136l-71 -77l235 -354q14 -21 38 -34q8 -4 14 -4h37v-28z" />
    <glyph glyph-name="L" unicode="L" horiz-adv-x="583" 
d="M561 179l-50 -179h-483v27h53q33 5 36 52v518q0 22 -22 33q-7 4 -14 4h-53v27h256v-27h-53q-22 0 -31 -24q-3 -6 -3 -13v-521q0 -36 24 -47q6 -3 14 -3h120q75 0 137 67q38 40 51 86h18z" />
    <glyph glyph-name="M" unicode="M" horiz-adv-x="857" 
d="M870 0h-256v27h53q21 0 32 23q4 7 4 14v543l-231 -607h-57l-234 594v-474q0 -47 28 -76q16 -16 37 -16h37v-28h-238v28h49q39 0 57 53q7 20 7 39v477q0 21 -21 33q-7 4 -14 4h-53v27h173l236 -599l229 599h162v-27h-53q-22 0 -31 -24q-3 -6 -3 -13v-533q0 -24 21 -34
q6 -3 13 -3h53v-27z" />
    <glyph glyph-name="N" unicode="N" horiz-adv-x="692" 
d="M741 633h-48q-42 0 -59 -54q-6 -19 -6 -38v-541h-64l-388 598v-478q0 -45 28 -75q16 -17 37 -17h38v-28h-239v28h49q39 0 58 52q7 21 7 40v477q0 22 -22 33q-7 4 -14 4h-52v27h156l383 -581v461q0 52 -29 79q-15 13 -35 13h-38v28h238v-28z" />
    <glyph glyph-name="O" unicode="O" horiz-adv-x="734" 
d="M359 -21q-172 0 -266 127q-68 93 -69 219q0 89 37 166q62 129 196 167q48 13 101 13q172 0 265 -127q68 -93 68 -219q1 -54 -13 -105q-38 -136 -151 -200q-73 -41 -168 -41zM359 0h-1q126 0 193 122q47 86 47 202q0 65 -16 125q-37 134 -134 181q-41 20 -89 20
q-125 0 -191 -122q-47 -87 -47 -202q0 -136 63 -229q66 -97 175 -97z" />
    <glyph glyph-name="P" unicode="P" horiz-adv-x="527" 
d="M493 537l-1 -37q-11 -89 -105 -122q-38 -13 -81 -13h-108v-301q0 -24 22 -34q6 -3 13 -3h52v-27h-255v27h53q21 0 32 23q3 7 3 14v539q0 23 -21 34q-7 4 -14 4h-53v20h291q125 0 161 -77q9 -21 11 -47zM418 535q0 59 -59 87q-28 13 -61 13h-100v-248h99q121 0 121 144v4z
" />
    <glyph glyph-name="Q" unicode="Q" horiz-adv-x="728" 
d="M568 27q0 -67 -48 -103q-26 -19 -60 -20l-32 3q-35 7 -102 49q-54 34 -82 35l-26 -2q-20 -4 -26 -24q11 13 24 14l13 -3q22 -10 24 -38l-3 -17q-11 -26 -52 -26q-22 0 -37 25q-6 10 -6 19q0 43 58 65q3 1 7 2q-103 35 -156 154q-36 80 -37 172q0 51 12 99q36 143 155 202
q67 33 155 33q173 0 267 -125q70 -92 70 -217q0 -46 -10 -90q-33 -137 -146 -206q-53 -31 -118 -43q39 -12 75 -12q41 0 63 27q10 12 10 27h8zM365 2q118 8 179 129q42 83 42 191q0 146 -71 239q-65 84 -166 84q-123 0 -189 -122q-45 -85 -46 -199q0 -116 48 -203
q40 -75 106 -104l29 2q20 -2 68 -17z" />
    <glyph glyph-name="R" unicode="R" horiz-adv-x="632" 
d="M651 0h-89q-50 0 -80 49q-2 4 -5 8l-176 308h-107v-301q0 -24 22 -34q6 -3 13 -3h52v-27h-255v27h53q21 0 32 23q3 7 3 14v532q0 23 -21 34q-7 4 -14 4h-53v27h318q125 0 161 -77q9 -21 11 -47v-41q-11 -98 -102 -123q-14 -4 -30 -6l173 -295q21 -36 60 -48q11 -4 21 -4
h13v-20zM430 535q0 61 -66 84q-25 9 -55 9h-115v-234h114q103 0 119 95z" />
    <glyph glyph-name="S" unicode="S" horiz-adv-x="525" 
d="M492 174q0 -69 -55 -123q-62 -61 -160 -61q-47 0 -97 28q-36 20 -60 22l-10 -4q-18 -12 -38 -38h-14l-11 217h17q26 -98 101 -157q57 -44 122 -44q90 0 118 65q10 23 10 52q0 87 -96 140q-22 12 -127 56q-102 43 -134 88q-23 33 -23 75l3 33q17 76 95 121q53 30 112 30
q63 0 106 -29q24 -15 41 -15h6q17 1 45 39q2 2 3 4h14l13 -221h-17q-29 109 -100 165q-47 37 -102 37q-67 0 -107 -52q-27 -34 -27 -77q0 -66 87 -115q14 -7 119 -55q108 -49 142 -100q24 -36 24 -81z" />
    <glyph glyph-name="T" unicode="T" horiz-adv-x="771" 
d="M738 487l-23 -1q-20 77 -91 117q-42 24 -88 24h-80q-26 0 -35 -34q-2 -8 -2 -16v-513q0 -24 22 -34q6 -3 13 -3h53v-27h-256v27h53q21 0 32 23q3 7 3 14v513q0 37 -24 48q-6 2 -13 2h-41q-106 0 -160 -69q-24 -31 -32 -72l-25 1l58 174h579z" />
    <glyph glyph-name="U" unicode="U" horiz-adv-x="643" 
d="M676 634h-53q-23 0 -32 -24q-3 -6 -3 -13v-377q0 -90 -68 -163q-64 -70 -146 -70q-146 2 -200 55q-46 46 -46 139v416q0 21 -21 33q-7 4 -14 4h-53v27h256v-27h-53q-23 0 -32 -24q-3 -6 -3 -13v-465q0 -69 73 -104q40 -19 90 -19q79 0 134 71q46 58 46 129v388
q0 22 -21 33q-8 4 -15 4h-52v27h213v-27z" />
    <glyph glyph-name="V" unicode="V" horiz-adv-x="648" 
d="M694 633h-12q-49 0 -98 -74q-16 -25 -25 -48l-186 -511h-52l-212 586q-16 47 -55 47h-13v28h212v-28h-45q-21 0 -21 -22q0 -11 5 -27l185 -511l158 430q22 60 22 83l-3 20q-11 27 -57 27h-25v28h222v-28z" />
    <glyph glyph-name="W" unicode="W" horiz-adv-x="973" 
d="M1042 633h-19q-71 0 -115 -117l-190 -516h-51l-149 415l-145 -415h-52l-212 586q-16 47 -55 47h-13v28h216v-28h-45q-21 0 -21 -22q0 -11 5 -27l182 -505l129 363l-52 144q-16 47 -56 47h-13v28h213v-28h-38q-27 0 -27 -29q0 -10 4 -20l187 -502l155 421q11 32 11 65
q0 65 -49 65h-25v28h225v-28z" />
    <glyph glyph-name="X" unicode="X" horiz-adv-x="641" 
d="M647 633h-21q-62 0 -132 -100l-6 -8l-112 -165q1 0 177 -288q12 -20 38 -39q12 -8 18 -8h36v-25h-234v28h45q17 0 17 24q0 16 -6 26l-134 221l-101 -148q-37 -55 -38 -92q0 -11 5 -18q7 -13 28 -13h25v-28h-222v28h16q72 0 145 108l127 188l-163 264q-28 48 -54 48h-27
v25h212v-28h-45q-19 0 -19 -16l4 -18q3 -8 8 -15l126 -200l81 120q36 52 40 93l-1 18q-6 18 -30 18h-25v28h222v-28z" />
    <glyph glyph-name="Y" unicode="Y" horiz-adv-x="605" 
d="M648 633h-35q-42 0 -116 -97q-4 -6 -8 -11l-137 -188v-273q0 -24 21 -34q6 -3 13 -3h53v-27h-256v27h53q21 0 32 23q4 7 4 14v270l-149 254q-22 38 -55 46q-6 2 -12 2h-8v25h215v-28h-29q-34 0 -35 -20l4 -18q3 -5 6 -11l132 -227l103 147q45 62 45 99q0 30 -37 30h-26
v28h222v-28z" />
    <glyph glyph-name="Z" unicode="Z" horiz-adv-x="576" 
d="M566 206l-59 -206h-458v21l399 612h-170q-64 0 -122 -48q-38 -32 -49 -70l-13 -46h-25l45 192h432v-22l-391 -611h184q76 0 141 69q27 28 42 60l22 47z" />
    <glyph glyph-name="bracketleft" unicode="[" horiz-adv-x="271" 
d="M290 -210h-215v880h215v-33h-134v-814h134v-33z" />
    <glyph glyph-name="backslash" unicode="\" horiz-adv-x="416" 
d="M399 -19h-49l-312 600h49z" />
    <glyph glyph-name="bracketright" unicode="]" horiz-adv-x="344" 
d="M289 -210h-215v33h129v814h-129v33h215v-880z" />
    <glyph glyph-name="asciicircum" unicode="^" horiz-adv-x="388" 
d="M352 368h-40l-110 106h-11l-109 -106h-44l145 187h25z" />
    <glyph glyph-name="underscore" unicode="_" horiz-adv-x="462" 
d="M495 -210h-495v50h495v-50z" />
    <glyph glyph-name="grave" unicode="`" horiz-adv-x="207" 
d="M222 628h-40l-128 109h83z" />
    <glyph glyph-name="a" unicode="a" horiz-adv-x="497" 
d="M464 43q0 -31 -41 -47q-11 -4 -21 -5l-28 1q-56 11 -61 80q-29 -54 -76 -74q-17 -7 -34 -7q-89 0 -123 54q-15 23 -15 54v5q3 74 82 110q10 5 96 33q47 16 70 33v102q0 38 -41 52q-12 4 -26 4q-45 0 -68 -14v-24q0 -3 -4 -21q-13 -55 -33 -66q-7 -4 -17 -4q-30 0 -31 30
l4 22q18 51 79 84q53 27 120 27h5q43 0 71 -28q22 -22 22 -55v-316q0 -28 20 -37l11 -2q20 1 37 37q1 3 2 5v-33zM313 117v133l-98 -36q-65 -30 -69 -80v-41q6 -48 47 -56q14 -3 41 -3q36 0 76 76z" />
    <glyph glyph-name="b" unicode="b" horiz-adv-x="519" 
d="M493 243l-3 -41q-16 -94 -96 -160q-61 -50 -122 -51l-46 3q-59 9 -92 38l-64 -41v0v603l-45 9v16l126 64v-255q45 41 121 44l48 -2q130 -18 163 -146q9 -37 10 -81zM398 239q0 127 -75 186q-30 24 -54 24h-5q-99 -14 -111 -98q-2 -13 -2 -29v-202q16 -107 115 -108h6
q66 2 102 91q24 60 24 136z" />
    <glyph glyph-name="c" unicode="c" horiz-adv-x="454" 
d="M410 107q-33 -75 -98 -104q-28 -12 -57 -12q-112 0 -175 91q-43 64 -43 144q0 110 80 184q68 62 155 62q79 0 118 -60q17 -26 18 -54q0 -21 -12 -34q-11 -15 -33 -16l-17 3q-30 12 -35 56l1 28q1 2 1 3q2 11 18 30q-20 20 -44 21q-4 1 -15 1l-29 -3q-65 -14 -96 -94
q-14 -37 -15 -77l1 -59q14 -145 114 -162q9 -2 19 -2l30 2q66 14 114 102v-50z" />
    <glyph glyph-name="d" unicode="d" horiz-adv-x="520" 
d="M483 45l-104 -54v30q-47 -28 -118 -30l-43 2q-105 16 -153 111q-26 53 -28 124l3 45q15 103 98 160q56 38 123 39l39 -3q45 -8 79 -37v160l-48 10l3 19l126 59v-601l23 -10v-24zM379 124v171q0 103 -28 131q-23 25 -90 25q-111 -1 -125 -186q-1 -12 -1 -26l3 -64
q14 -141 91 -161l26 -3h8q77 6 101 56q10 22 15 57z" />
    <glyph glyph-name="e" unicode="e" horiz-adv-x="448" 
d="M427 290h-306l-8 -43v-1q0 -86 54 -135q33 -30 72 -30q132 0 184 100v-88q-30 -61 -108 -89q-35 -13 -69 -13q-105 0 -166 78q-50 63 -50 159v14q3 99 74 168q63 62 148 62q87 0 138 -66q37 -48 37 -116zM348 318q0 72 -38 112q-24 26 -58 26q-93 0 -124 -130l-2 -8h222z
" />
    <glyph glyph-name="f" unicode="f" horiz-adv-x="251" 
d="M299 615l-3 -15q-9 -21 -37 -21q-33 0 -43 31q-3 8 -3 18t6 21l-19 3q-29 -1 -35 -25q-1 -4 -1 -8v-186h53v-22h-53v-363q0 -19 18 -26q3 -1 7 -1h45v-21h-221v21h44q17 0 24 18q2 5 2 9v363h-45v22h45v137q0 46 55 77q34 18 68 18q69 0 88 -33q5 -8 5 -17z" />
    <glyph glyph-name="g" unicode="g" horiz-adv-x="458" 
d="M444 -48q0 -92 -89 -137q-54 -27 -124 -27q-121 0 -177 52q-32 30 -32 75q1 45 60 92q21 16 41 25q-46 16 -62 53q-5 11 -5 21q0 55 99 66q-59 13 -85 78q-12 31 -12 65q0 83 61 124q40 27 99 27q73 0 113 -43l4 -4v21l1 15v1l3 22q10 29 42 29q33 0 46 -26q5 -9 5 -20
q0 -36 -31 -48l-20 -2q-6 0 -13 2q-14 5 -17 9q-1 1 -3 4v-25q25 -40 25 -92q0 -83 -60 -125q-39 -26 -95 -26q-12 0 -18 1q-58 -4 -68 -9q-14 -6 -14 -19q0 -20 77 -38q118 -29 143 -38q106 -37 106 -103zM218 176q48 0 68 69q10 32 10 70q0 86 -39 122q-17 16 -39 16
q-48 0 -70 -69q-9 -32 -10 -70q0 -43 13 -77q21 -61 67 -61zM380 -82q0 44 -105 75l-128 33q-62 -45 -67 -96l-1 -15q1 -76 95 -96q27 -6 57 -6q109 0 140 62q9 19 9 43z" />
    <glyph glyph-name="h" unicode="h" horiz-adv-x="524" 
d="M538 0h-221v21h45q16 0 23 18q2 5 2 9v314q0 43 -37 67q-19 12 -43 12q-57 -2 -115 -57q-7 -7 -13 -14v-322q0 -19 18 -26q3 -1 7 -1h45v-21h-221v21h44q17 0 24 18q2 5 2 9v516l-55 16v18l136 67v-263q49 52 116 66q14 3 26 4l43 -1q83 -10 100 -58q4 -10 4 -21v-344
q0 -17 17 -25q4 -2 8 -2h45v-21z" />
    <glyph glyph-name="i" unicode="i" horiz-adv-x="239" 
d="M176 583q0 -31 -30 -38h-18q-29 6 -31 38q0 32 30 39h18q29 -6 31 -39zM253 0h-222v21h45q17 0 24 18q2 5 2 9v326l-53 18v15l133 67v-426q0 -17 17 -25q5 -2 9 -2h45v-21z" />
    <glyph glyph-name="j" unicode="j" horiz-adv-x="254" 
d="M188 583q0 -32 -30 -40l-19 -1q-30 12 -34 41q0 33 30 41h19q30 -12 34 -41zM198 -35q0 -62 -62 -96q-32 -17 -65 -17q-60 0 -69 41v21q6 31 33 39q5 2 10 2l16 -3q23 -12 25 -39l-3 -16q-3 -8 -10 -14q-15 -13 -19 -15q19 0 33 7q30 16 30 56v459l-40 13v14l121 57v-509
z" />
    <glyph glyph-name="k" unicode="k" horiz-adv-x="566" 
d="M546 0h-230v22h45q9 0 9 6l-5 14l-125 202l-61 -50v-145q0 -19 18 -26q3 -1 7 -1h45v-22h-221v22h44q17 0 24 18q2 5 2 9v520l-55 15v19l136 67v-453l130 123q32 30 32 67q0 35 -36 37h-29v19h250v-19q-62 -8 -119 -58l-101 -89l161 -255q5 -14 26 -19q4 -1 7 -1h46v-22z
" />
    <glyph glyph-name="l" unicode="l" horiz-adv-x="239" 
d="M252 0h-221v21h45q16 0 23 19q2 4 2 8v521l-55 15v19l136 67v-622q0 -18 17 -25q4 -2 8 -2h45v-21z" />
    <glyph glyph-name="m" unicode="m" horiz-adv-x="820" 
d="M827 0h-223v21h44q17 0 24 18q2 5 2 9v315q0 43 -37 67q-19 12 -43 12q-58 -2 -120 -62l-6 -6v-326q0 -17 17 -25q4 -2 8 -2h45v-21h-221v21h45q16 0 23 18q2 5 2 9v315q0 43 -37 67q-19 12 -43 12q-59 -2 -119 -60q-5 -4 -9 -9v-325q0 -17 17 -25q5 -2 9 -2h44v-21h-221
v21h45q18 0 24 20q1 3 1 7v325l-54 15v19l135 67v-71q54 54 125 67q8 1 17 2l48 -1q94 -10 99 -67q56 56 125 66q8 2 15 2l46 -1q93 -9 102 -63q1 -5 1 -11v-349q0 -18 17 -25q4 -2 8 -2h45v-21z" />
    <glyph glyph-name="n" unicode="n" horiz-adv-x="531" 
d="M538 0h-221v21h45q16 0 23 18q2 5 2 9v315q0 43 -37 67q-19 12 -43 12q-59 -2 -119 -60q-5 -4 -9 -9v-325q0 -17 17 -25q5 -2 9 -2h44v-21h-221v21h45q18 0 24 20q1 3 1 7v325l-54 15v19l135 67v-71q55 55 125 67q8 2 17 2l45 -1q92 -9 101 -63q1 -5 1 -11v-349
q0 -17 17 -25q4 -2 8 -2h45v-21z" />
    <glyph glyph-name="o" unicode="o" horiz-adv-x="534" 
d="M250 -9q-123 0 -184 101q-37 61 -37 139q0 111 68 180q60 61 153 61q124 0 185 -101q38 -61 38 -139q0 -51 -17 -98q-37 -100 -131 -131q-35 -12 -75 -12zM250 6q74 0 110 96q21 57 21 128q0 65 -18 119q-31 96 -100 105q-6 1 -13 1q-74 0 -111 -96q-21 -57 -21 -128
q0 -65 18 -119q32 -96 101 -105q6 -1 13 -1z" />
    <glyph glyph-name="p" unicode="p" horiz-adv-x="571" 
d="M526 243l-3 -41q-16 -94 -96 -160q-61 -50 -122 -51l-41 3q-46 7 -79 34v-127q0 -18 17 -25q4 -2 8 -2h45v-21h-221v21h45q16 0 23 19q2 4 2 8v462l-43 23v19l124 60v-41q56 45 120 48l48 -2q132 -18 164 -151q8 -34 9 -76zM431 239q0 127 -74 188q-30 24 -55 24h-4
q-113 -16 -113 -120v-215q17 -105 114 -105h6q66 2 102 91q24 60 24 137z" />
    <glyph glyph-name="q" unicode="q" horiz-adv-x="523" 
d="M516 -165h-151v186q-45 -28 -117 -30l-39 2q-93 15 -146 101q-37 59 -39 134l3 40q15 93 90 154q60 49 131 50l43 -3q61 -10 94 -40l61 45v-591q0 -19 18 -26q3 -1 7 -1h45v-21zM365 115v195q0 95 -30 121q-24 20 -87 20q-102 -1 -122 -156q-3 -27 -4 -56l2 -62
q13 -135 85 -160q15 -5 31 -5h10q75 6 99 48q11 21 16 55z" />
    <glyph glyph-name="r" unicode="r" horiz-adv-x="376" 
d="M361 443l-2 -19q-12 -35 -51 -36h-7q-31 1 -50 27l-1 6l2 6q-43 -10 -79 -53v-326q0 -17 17 -25q4 -2 8 -2h45v-21h-221v21h45q16 0 23 18q2 5 2 9v339l-40 16v9l121 57v-67q31 34 90 59q27 12 44 12l29 -2q23 -5 25 -28z" />
    <glyph glyph-name="s" unicode="s" horiz-adv-x="377" 
d="M341 119q0 -69 -76 -107q-36 -17 -77 -21l-32 1q-37 6 -104 34v110l7 3q7 -58 53 -99q32 -29 69 -29q7 0 14 1q60 10 78 56q5 14 5 32q-1 35 -57 65l-92 45q-89 51 -90 137l3 27q16 57 89 84q31 12 64 14l34 -2q37 -6 92 -30v-110l-6 -3q-13 70 -59 104q-25 18 -54 18
q-66 0 -90 -39q-7 -12 -8 -27l2 -21q10 -32 71 -64q76 -39 88 -47q76 -51 76 -132z" />
    <glyph glyph-name="t" unicode="t" horiz-adv-x="299" 
d="M266 64l-3 -15q-14 -32 -53 -49q-21 -9 -42 -9q-42 0 -70 40q-14 21 -14 42v333h-56v29l106 125l31 -14v-90h87l-19 -50h-68v-341q0 -19 23 -27l14 -2q34 3 55 30q7 8 7 17z" />
    <glyph glyph-name="u" unicode="u" horiz-adv-x="544" 
d="M527 61l-139 -70v74q-50 -61 -126 -72q-13 -2 -26 -2q-62 0 -80 5q-71 19 -71 120v299q0 17 -17 25q-4 2 -8 2h-45v21h151v-352q0 -62 50 -79q13 -5 29 -5h6q66 4 125 59q6 7 12 13v316q0 17 -17 25q-4 2 -8 2h-45v21h151v-366l58 -16v-20z" />
    <glyph glyph-name="v" unicode="v" horiz-adv-x="473" 
d="M490 442h-27q-29 0 -53 -34q-6 -9 -9 -17l-141 -391l-47 6l-132 412q-4 13 -22 22q-5 2 -9 2h-26v21h176v-21h-28q-18 0 -19 -19l1 -11l111 -334l99 279q8 23 8 43q0 23 -11 33q-9 9 -24 9h-24v21h177v-21z" />
    <glyph glyph-name="w" unicode="w" horiz-adv-x="675" 
d="M693 442h-27q-32 0 -55 -36q-5 -8 -8 -15l-141 -391l-44 6l-76 247l-101 -253l-47 6l-133 412q-6 19 -26 23q-2 1 -5 1h-25v21h184v-21h-29q-18 0 -19 -20l1 -10l103 -325l83 201l-42 130q-4 13 -23 22q-5 2 -9 2h-25v21h175v-21h-27q-18 0 -19 -19l1 -11l111 -334
l98 279q9 23 9 44q0 41 -36 41h-23v21h175v-21z" />
    <glyph glyph-name="x" unicode="x" horiz-adv-x="501" 
d="M464 0h-185v21h24q10 0 10 15l-3 21l-1 1l-83 143l-73 -107q-8 -12 -8 -26q0 -22 16 -36q14 -11 33 -11h15v-22h-195v23h30q38 0 73 55l97 147l-110 194q-13 24 -32 24h-25v21h195v-21h-28q-16 0 -20 -16l1 -12l1 -2l72 -126q1 0 56 80q14 19 14 45q0 13 -6 21
q-7 10 -22 10h-24v21h173v-21h-26q-28 0 -61 -39q-4 -5 -7 -9l-86 -128l101 -178q39 -67 63 -67h21v-21z" />
    <glyph glyph-name="y" unicode="y" horiz-adv-x="485" 
d="M467 442h-19q-28 0 -56 -43q-4 -7 -7 -12l-204 -426q-14 -29 -48 -46q-16 -9 -30 -9q-49 0 -64 38q-4 9 -4 20q0 32 29 41q7 2 16 2q36 0 42 -31l-1 -18q-2 -9 -7 -15q-6 -7 -15 -11q44 0 65 45l21 44l-4 2l-118 395q-4 15 -24 22q-4 2 -8 2h-25v21h184v-21h-28
q-19 0 -19 -20l1 -10l90 -290l110 235q8 17 9 39l-4 22q-7 24 -32 24h-23v21h173v-21z" />
    <glyph glyph-name="z" unicode="z" horiz-adv-x="409" 
d="M389 463l-273 -442h112q54 0 100 64q17 23 25 47l18 -7l-38 -127h-321l270 444h-121q-48 0 -79 -68q-13 -27 -16 -53l-19 10l23 132h319z" />
    <glyph glyph-name="braceleft" unicode="{" horiz-adv-x="285" 
d="M305 -213h-57q-52 0 -87 31q-42 37 -43 91v180q0 57 -4 70q-6 21 -24 34q-20 13 -43 14v36q24 8 40 24q30 27 31 84v29v172q0 51 43 87q35 31 82 31h62v-40h-42q-27 0 -52 -21q-24 -21 -24 -62l1 -42v-146q0 -56 -9 -77q-5 -10 -13 -20q-18 -22 -42 -33q23 -4 42 -21
q22 -20 22 -66v-19v-172q0 -61 13 -83q7 -12 20 -22q24 -18 47 -19l37 -1v-39z" />
    <glyph glyph-name="bar" unicode="|" horiz-adv-x="167" 
d="M112 -19h-65v742h65v-742z" />
    <glyph glyph-name="braceright" unicode="}" horiz-adv-x="275" 
d="M32 -213h57q52 0 87 31q43 39 43 91v180q0 57 2 67q6 23 26 37q18 13 43 14v36q-24 8 -40 24q-30 27 -31 84v29v172q0 50 -43 87q-36 31 -82 31h-62v-40h42q27 0 52 -21q24 -21 24 -62l-1 -42v-146q0 -56 9 -77q5 -10 13 -20q18 -22 42 -33q-23 -4 -42 -21
q-22 -20 -22 -66v-19v-172q0 -61 -13 -83q-7 -12 -20 -22q-24 -18 -47 -19l-37 -1v-39z" />
    <glyph glyph-name="asciitilde" unicode="~" horiz-adv-x="332" 
d="M334 580l-2 -29q-10 -52 -49 -71q-13 -6 -29 -6q-32 1 -64 29q-22 19 -39 19q-47 -1 -74 -37l-6 -8h-19q1 54 47 89q27 21 56 22l20 -4q10 -3 46 -29q18 -13 30 -13q39 2 62 29q3 4 7 9h14z" />
    <glyph glyph-name="uni00A0" unicode="&#xa0;" horiz-adv-x="236" 
 />
    <glyph glyph-name="exclamdown" unicode="&#xa1;" horiz-adv-x="282" 
d="M99 -67q4 -9 12 -9l8 2q3 2 5 7q39 75 43 85q10 28 10 64q0 67 -29 176q-26 99 -26 166q0 21 -9 23l-5 -2q-6 -5 -6 -21q0 -67 -29 -176q-26 -99 -26 -166q0 -46 28 -101q19 -37 24 -48zM37 563q0 -48 37 -70q16 -10 35 -10q44 0 67 39q11 19 11 41q0 45 -38 68
q-17 11 -37 11q-44 0 -65 -40q-10 -18 -10 -39z" />
    <glyph glyph-name="cent" unicode="&#xa2;" horiz-adv-x="479" 
d="M207 435q-57 0 -91 -74q-22 -48 -22 -102q0 -86 56 -140l6 -6q4 -5 11 -5q8 0 9 8q17 104 47 300q0 13 -12 18q-2 1 -4 1zM371 153q8 18 19 20l5 -2l2 -10l-2 -10q-24 -97 -107 -134q-37 -17 -81 -17q-12 0 -24 3l-14 -79v-1q-2 -8 -13 -8q-10 0 -10 10v6l13 78
q-72 26 -117 105q-34 59 -34 122q0 62 43 127q33 49 77 69q59 26 93 33l8 3h1l5 30q2 14 16 15l9 -3q4 -3 4 -13l-5 -31q68 -11 108 -51q13 -13 13 -29q0 -4 -1 -8q-4 -29 -30 -36q-4 -1 -9 -1q-21 0 -39 30q-7 12 -9 15q-15 23 -18 25q-2 2 -4 2l-15 1q-5 -1 -6 -7
l-49 -305l1 -10q4 -7 12 -10q22 -4 35 -4q53 0 95 38q18 16 28 37z" />
    <glyph glyph-name="sterling" unicode="&#xa3;" horiz-adv-x="620" 
d="M218 88q-10 0 -32 -2q-18 -26 -42 -51q-33 -35 -57 -35q-18 0 -22 18q-1 3 -1 6q0 30 44 53l36 17q9 5 27 13q7 21 25 108l-1 11q-8 16 -32 16h-23q-13 0 -16 15q0 13 16 16h46q20 0 25 22q31 160 73 250q26 55 57 78q7 5 15 10q38 22 84 35l19 1q13 -2 24 -7
q41 -22 44 -47q0 -25 -22 -34q-6 -2 -12 -2q-21 0 -33 26q-1 2 -2 5q-11 27 -41 30l-18 -2q-12 -3 -20 -13q-26 -32 -48 -142q-18 -94 -29 -131l-20 -66l-1 -9q2 -4 7 -4h42q24 0 24 -16q0 -15 -27 -15h-47q-13 0 -18 -15q-22 -60 -54 -110q16 3 35 3q41 0 108 -39
q70 -37 100 -40q36 0 37 29q0 14 -9 21q-28 16 -28 40q0 23 25 30q6 2 12 2q29 0 40 -32q4 -10 4 -21q0 -41 -52 -79q-42 -31 -80 -31q-45 0 -105 46q-48 37 -66 41q-6 1 -11 1z" />
    <glyph glyph-name="currency" unicode="&#xa4;" horiz-adv-x="544" 
d="M437 134l-28 -28l-52 53q-54 -44 -132 -44q-75 0 -127 41l-49 -50l-27 28l48 49q-46 54 -46 131q1 76 45 131q0 1 -47 47l27 28l47 -48q53 43 129 43q82 0 133 -46l51 51l28 -28l-52 -51q40 -54 40 -126q0 -74 -42 -128zM225 180q84 0 119 69q16 30 16 66q0 71 -52 110
q-35 25 -83 25q-84 0 -119 -69q-16 -30 -16 -66q0 -71 52 -110q35 -25 83 -25z" />
    <glyph glyph-name="yen" unicode="&#xa5;" horiz-adv-x="647" 
d="M639 636h-35q-45 0 -124 -108l-30 -41h98v-38h-125l-58 -80h183v-38h-204v-270q0 -24 22 -34q6 -3 13 -3h52v-24h-257v24h53q21 0 32 23q3 7 3 14v270h-234v38h215l-47 80h-168v38h146l-61 104q-22 38 -55 46q-6 2 -12 2h-7v22h216v-25h-28q-34 0 -35 -20l4 -18
q3 -5 6 -11l57 -100h163l14 20q44 65 44 99q1 14 -8 22t-28 8h-25v25h220v-25zM396 449h-115l47 -80h14z" />
    <glyph glyph-name="brokenbar" unicode="&#xa6;" horiz-adv-x="201" 
d="M110 398h-63v325h63v-325zM110 -19h-63v350h63v-350z" />
    <glyph glyph-name="section" unicode="&#xa7;" horiz-adv-x="359" 
d="M324 613q-5 -39 -36 -46h-16q-28 7 -29 38v8q2 30 29 30h11q-5 28 -24 35q-22 9 -46 9l-24 -3q-50 -13 -60 -84l-1 -32q8 -70 89 -100l21 -6q46 -24 54 -86l1 -33q-7 -72 -70 -101l-14 -6q49 -7 77 -51q17 -27 18 -60q0 -10 -2 -21q-9 -59 -64 -87q-7 -3 -12 -5
q-36 -11 -66 -12q-19 0 -41 4q-61 10 -82 52q-6 13 -6 28v8q5 40 35 46h16q28 -7 31 -37v-9q-2 -31 -30 -31h-12q9 -26 19 -32q2 -2 6 -3q22 -9 46 -9q59 0 78 59q5 13 6 28v35q-8 71 -97 101l-20 6q-52 30 -57 97l1 32q11 67 69 92l10 4q-63 23 -77 78q-4 14 -4 29
q0 11 2 23q9 60 69 90q4 2 7 3q34 10 64 10q20 0 44 -4q61 -10 81 -52q6 -13 6 -27v-8zM176 435l-20 -4q-36 -13 -45 -64l-2 -29q4 -53 46 -63q5 -2 11 -2l20 2q39 11 44 66l-1 31q-8 52 -42 61q-5 2 -11 2z" />
    <glyph glyph-name="dieresis" unicode="&#xa8;" 
d="M258 525q-32 0 -40 30l-1 19q12 31 41 35q33 0 40 -30l1 -19q-4 -29 -33 -34q-4 -1 -8 -1zM86 525q-32 0 -40 30l-1 19q12 31 41 35q33 0 40 -30l1 -19q-4 -29 -33 -34q-4 -1 -8 -1z" />
    <glyph glyph-name="copyright" unicode="&#xa9;" horiz-adv-x="539" 
d="M252 723q126 -1 186 -97q35 -55 35 -125q0 -35 -9 -68q-28 -98 -116 -136q-43 -19 -99 -19q-126 1 -186 97q-35 55 -35 125q0 35 9 68q28 98 116 136q43 19 99 19zM252 674l-40 -3q-86 -16 -120 -97q-15 -34 -15 -72q0 -23 5 -44q19 -83 93 -115q33 -15 74 -15l40 3
q86 16 120 97q15 34 15 72q0 23 -5 44q-19 83 -93 115q-33 15 -74 15zM343 465l-16 -85h-7q0 5 -2 8q-3 6 -10 6q-9 0 -39 -12q-13 -6 -23 -6l-31 2q-75 15 -82 122l2 31q12 65 63 92q24 13 53 13q24 0 46 -17q6 -5 11 -5l9 6l8 10l1 1h4l5 -84h-6q-1 9 -5 15q-29 69 -74 69
q-43 0 -67 -60q-11 -31 -12 -65l3 -42q13 -73 60 -80q4 -1 8 -1q39 0 72 36q5 6 9 12q12 17 16 34h4z" />
    <glyph glyph-name="ordfeminine" unicode="&#xaa;" horiz-adv-x="317" 
d="M311 236q0 -25 -36 -36q-7 -2 -14 -3l-24 1q-41 8 -52 42q-2 7 -2 14q-16 -35 -52 -51q-13 -6 -25 -6q-80 0 -99 50q-4 11 -4 28q2 51 70 79l92 34q10 5 18 10v74q0 29 -32 37q-8 2 -15 2q-17 0 -41 -12q-7 -3 -14 -5l-1 -25q-13 -52 -42 -52q-12 0 -13 13l5 18
q17 39 67 63q35 16 77 16q61 0 81 -29q7 -9 7 -22v-224q4 -24 22 -28q13 0 25 24l2 6v-18zM313 126h-313v44h313v-44zM183 286v89q-92 -21 -109 -64q-3 -7 -3 -14l2 -26q9 -41 55 -41q26 0 55 56z" />
    <glyph glyph-name="guillemotleft" unicode="&#xab;" horiz-adv-x="827" 
d="M38 312l415 -228v64l-330 174v16l330 164v63l-415 -215v-38zM321 312l415 -228v64l-330 174v16l330 164v63l-415 -215v-38z" />
    <glyph glyph-name="logicalnot" unicode="&#xac;" horiz-adv-x="638" 
d="M585 40h-50v170h-500v50h550v-220z" />
    <glyph glyph-name="uni00AD" unicode="&#xad;" horiz-adv-x="340" 
d="M266 204h-233v50h233v-50z" />
    <glyph glyph-name="registered" unicode="&#xae;" horiz-adv-x="529" 
d="M254 723q126 -1 186 -97q35 -55 35 -125q0 -35 -9 -68q-28 -98 -116 -136q-43 -19 -99 -19q-126 1 -186 97q-35 55 -35 125q0 35 9 68q28 98 116 136q43 19 99 19zM254 674l-39 -3q-86 -16 -120 -96q-15 -35 -15 -74q0 -22 4 -43q19 -83 93 -115q33 -15 74 -15l40 3
q86 16 120 97q15 34 15 72q0 23 -5 44q-19 83 -93 115q-33 15 -74 15zM375 387h-32q-13 0 -19 5t-11 15l-65 113h-32v-111q0 -6 4 -10t8 -4h19v-8h-98v8h19q5 0 9 4t4 10v195q0 5 -4 9q-3 5 -9 5h-19v9h58h64q52 0 56 -46l-1 -24q-8 -32 -44 -37l60 -107q5 -10 17 -16
q3 -5 12 -5h4v-5zM296 580q0 28 -32 35q-6 1 -12 1h-36v-87h36q42 4 44 51z" />
    <glyph glyph-name="macron" unicode="&#xaf;" 
d="M250 585h-215v49h215v-49z" />
    <glyph glyph-name="degree" unicode="&#xb0;" horiz-adv-x="222" 
d="M83 709q54 -1 71 -48q5 -13 5 -28q0 -27 -15 -48q-22 -30 -63 -31l-25 3q-43 12 -50 59v27q7 48 50 62q12 4 27 4zM83 672q-31 0 -38 -29v-17q5 -28 37 -31q30 0 37 29l1 18q-6 28 -37 30z" />
    <glyph glyph-name="plusminus" unicode="&#xb1;" horiz-adv-x="346" 
d="M323 193h-290v43h121v75h-121v43h121v102h44v-102h125v-43h-125v-75h125v-43z" />
    <glyph glyph-name="twosuperior" unicode="&#xb2;" horiz-adv-x="272" 
d="M227 476l-11 -70h-155v31q0 33 43 81q44 48 54 71q8 18 9 37l-3 19q-10 29 -42 31l-18 -2q-31 -11 -40 -51h-8q3 50 47 68q15 6 32 6q63 0 80 -39q5 -11 5 -24q0 -51 -63 -102q-48 -38 -51 -42q-6 -6 -9 -11q-5 -8 -9 -22h125l5 19h9z" />
    <glyph glyph-name="threesuperior" unicode="&#xb3;" horiz-adv-x="267" 
d="M168 476l-2 20q-10 33 -45 52q-13 6 -22 6h-12v15q10 1 18 6q32 17 32 54v7q-2 29 -33 33l-21 -2q-30 -7 -30 -34h-9q0 42 44 55q13 4 27 4h5q45 -2 60 -34q4 -8 4 -18q-1 -23 -23 -41l-15 -11l1 -6l6 -6q56 -22 62 -72l-1 -24q-10 -49 -65 -68q-22 -8 -48 -9l-21 3
q-33 11 -38 41v10q1 28 23 31l13 -2q14 -6 14 -25q-1 -22 -25 -22q5 -9 18 -19q7 -5 19 -5q33 0 53 29q10 14 11 32z" />
    <glyph glyph-name="acute" unicode="&#xb4;" 
d="M236 737l-128 -109h-42l85 109h85z" />
    <glyph glyph-name="mu" unicode="&#xb5;" horiz-adv-x="671" 
d="M617 150q-39 -76 -53 -96q-40 -54 -90 -54q-10 0 -21 2q-77 14 -96 54q-2 4 -3 8q-38 -53 -73 -63q-12 -3 -25 -3q-64 0 -100 67l-5 10l-27 -184q-5 -32 -40 -32q-33 0 -47 20q-4 5 -4 12l80 525q5 31 36 39l19 1q31 -4 33 -36l-1 -14l-31 -212l-1 -51l3 -36
q13 -65 60 -81q11 -4 23 -4l24 3q47 14 71 71l54 329q5 30 36 33l20 -3q26 -8 27 -32l-1 -7l-48 -299v-18q7 -27 46 -44l18 -4q40 1 83 93q8 18 9 20z" />
    <glyph glyph-name="paragraph" unicode="&#xb6;" horiz-adv-x="647" 
d="M580 626h-47v-695h-76v695h-76v-695h-75v423h-119q-107 0 -155 66q-27 37 -27 91q0 8 1 16q7 101 106 127q27 7 59 7h409v-35z" />
    <glyph glyph-name="periodcentered" unicode="&#xb7;" horiz-adv-x="217" 
d="M147 302q25 -16 25 -43l-4 -20q-11 -31 -42 -36h-20q-9 3 -19 9q-24 16 -24 43l3 21q13 32 43 36l20 -1q9 -3 18 -9z" />
    <glyph glyph-name="cedilla" unicode="&#xb8;" 
d="M367 -96l-2 -35q-12 -67 -96 -78q-18 -2 -41 -3l-52 -1v34l57 5q74 6 74 57q0 32 -40 42q-10 3 -21 3h-38v75l39 10v-38h28q49 0 77 -34q15 -17 15 -37z" />
    <glyph glyph-name="onesuperior" unicode="&#xb9;" horiz-adv-x="227" 
d="M211 406h-113v10h24q11 0 12 13v242h-20v9l60 17v-268q0 -9 13 -13h24v-10z" />
    <glyph glyph-name="ordmasculine" unicode="&#xba;" horiz-adv-x="390" 
d="M165 197q-109 0 -156 80q-22 39 -23 86q0 33 12 64q30 77 111 100q26 7 56 7q98 0 143 -80q22 -40 22 -89q0 -76 -50 -124q-45 -44 -115 -44zM323 132h-329v38h329v-38zM165 208q56 0 80 77q12 36 11 80q0 93 -42 136q-21 21 -49 21q-56 0 -81 -77q-11 -36 -11 -80
q0 -93 43 -136q21 -21 49 -21z" />
    <glyph glyph-name="guillemotright" unicode="&#xbb;" horiz-adv-x="827" 
d="M736 312l-415 -228v64l330 174v16l-330 164v63l415 -215v-38zM453 312l-415 -228v64l330 174v16l-330 164v63l415 -215v-38z" />
    <glyph glyph-name="onequarter" unicode="&#xbc;" horiz-adv-x="437" 
d="M150 406h-113v10h24q10 0 12 13v242h-20v9l60 17v-268q0 -9 13 -13h24v-10zM416 58h-29v-55h-42v55h-161l173 236h30v-194h29v-42zM345 100v140l-103 -140h103zM211 665h35l-100 -665h-30z" />
    <glyph glyph-name="onehalf" unicode="&#xbd;" horiz-adv-x="385" 
d="M147 406h-113v10h24q10 0 12 13v242h-20v9l60 17v-268q0 -9 13 -13h24v-10zM399 71l-12 -70h-155v31q0 33 43 80q44 48 54 70q9 19 10 38l-3 20q-10 29 -42 30l-18 -2q-32 -10 -40 -50h-9q3 48 46 66q15 7 33 7q64 0 81 -39q4 -11 4 -23q0 -52 -64 -103q-47 -38 -52 -44
q-4 -4 -6 -8q-2 -3 -10 -22h126l5 19h9zM214 665h35l-100 -665h-30z" />
    <glyph glyph-name="threequarters" unicode="&#xbe;" horiz-adv-x="488" 
d="M157 476l-3 20q-10 34 -45 52q-12 6 -22 6h-11v15q10 1 17 6q33 17 33 54v7q-3 29 -35 33l-20 -2q-30 -7 -30 -34h-8q0 42 45 56q12 3 25 3h5q46 -2 60 -34q4 -9 4 -18q0 -23 -23 -41q-13 -11 -14 -11l1 -6l6 -6q56 -22 61 -72l-1 -24q-10 -49 -65 -68q-22 -8 -48 -9
l-21 3q-32 11 -37 40l-1 11q2 28 23 31l13 -2q15 -6 15 -25q-1 -22 -25 -22q6 -11 18 -19q7 -5 18 -5q34 0 54 29q10 14 11 32zM492 58h-29v-55h-42v55h-162l174 236h30v-194h29v-42zM420 100v140l-102 -140h102zM279 665h35l-100 -665h-30z" />
    <glyph glyph-name="questiondown" unicode="&#xbf;" horiz-adv-x="425" 
d="M354 606q0 -44 -37 -65q-16 -10 -34 -10q-42 0 -63 39q-9 17 -9 36q0 44 38 65q16 9 34 9q41 0 62 -37q9 -17 9 -37zM248 329l23 161q2 14 11 15l7 -3q4 -4 5 -13q2 -23 22 -196l4 -45q-1 -23 -18 -26q-104 -20 -120 -24q-86 -27 -86 -89q0 -52 55 -70q17 -5 36 -5
q26 0 73 26q30 17 48 17q31 0 42 -28q3 -8 3 -17q0 -42 -49 -60q-19 -6 -39 -6q-83 0 -142 55q-49 45 -49 108q0 104 142 164q3 2 6 3q23 9 26 33z" />
    <glyph glyph-name="Agrave" unicode="&#xc0;" horiz-adv-x="694" 
d="M721 0h-227v28h40q17 0 21 17l-1 13l-89 257h-195l-84 -207q-4 -9 -4 -20q0 -12 5 -25q14 -35 46 -35h37v-28h-233v28h36q33 0 59 45q3 7 6 13l223 531l-10 30l68 39l221 -618q9 -26 44 -37q10 -3 19 -3h18v-28zM456 342l-79 233l-96 -233h175zM490 682h-40l-128 109h83z
" />
    <glyph glyph-name="Aacute" unicode="&#xc1;" horiz-adv-x="694" 
d="M721 0h-227v28h40q17 0 21 17l-1 13l-89 257h-195l-84 -207q-4 -9 -4 -20q0 -12 5 -25q14 -35 46 -35h37v-28h-233v28h36q33 0 59 45q3 7 6 13l223 531l-10 30l68 39l221 -618q9 -26 44 -37q10 -3 19 -3h18v-28zM456 342l-79 233l-96 -233h175zM477 789l-128 -109h-42
l85 109h85z" />
    <glyph glyph-name="Acircumflex" unicode="&#xc2;" horiz-adv-x="694" 
d="M721 0h-227v28h40q17 0 21 17l-1 13l-89 257h-195l-84 -207q-4 -9 -4 -20q0 -12 5 -25q14 -35 46 -35h37v-28h-233v28h36q33 0 59 45q3 7 6 13l223 531l-10 30l68 39l221 -618q9 -26 44 -37q10 -3 19 -3h18v-28zM456 342l-79 233l-96 -233h175zM516 649h-30l-82 79h-8
l-82 -79h-33l109 139h18z" />
    <glyph glyph-name="Atilde" unicode="&#xc3;" horiz-adv-x="694" 
d="M721 0h-227v28h40q17 0 21 17l-1 13l-89 257h-195l-84 -207q-4 -9 -4 -20q0 -12 5 -25q14 -35 46 -35h37v-28h-233v28h36q33 0 59 45q3 7 6 13l223 531l-10 30l68 39l221 -618q9 -26 44 -37q10 -3 19 -3h18v-28zM456 342l-79 233l-96 -233h175zM283 706h12q22 34 60 35
q11 0 31 -17t43 -18l17 3q31 12 39 52l1 21h-7q-20 -27 -52 -30l-12 3l-38 26q-9 5 -19 5q-38 -1 -62 -39q-12 -20 -13 -41z" />
    <glyph glyph-name="Adieresis" unicode="&#xc4;" horiz-adv-x="694" 
d="M721 0h-227v28h40q17 0 21 17l-1 13l-89 257h-195l-84 -207q-4 -9 -4 -20q0 -12 5 -25q14 -35 46 -35h37v-28h-233v28h36q33 0 59 45q3 7 6 13l223 531l-10 30l68 39l221 -618q9 -26 44 -37q10 -3 19 -3h18v-28zM456 342l-79 233l-96 -233h175zM477 700q-32 0 -40 30
l-1 19q12 31 41 35q33 0 40 -30l1 -19q-4 -29 -33 -34q-4 -1 -8 -1zM305 700q-32 0 -40 30l-1 19q12 31 41 35q33 0 40 -30l1 -19q-4 -29 -33 -34q-4 -1 -8 -1z" />
    <glyph glyph-name="Aring" unicode="&#xc5;" horiz-adv-x="694" 
d="M721 0h-227v28h40q17 0 21 17l-1 13l-89 257h-195l-84 -207q-4 -9 -4 -20q0 -12 5 -25q14 -35 46 -35h37v-28h-233v28h36q33 0 59 45q3 7 6 13l223 531l-6 17q-43 10 -52 55l-1 27q4 48 44 64q14 6 33 6q54 -1 71 -47q6 -13 5 -28q0 -35 -24 -58l209 -585q9 -26 44 -37
q10 -3 19 -3h18v-28zM379 749l-16 -3q-22 -8 -23 -34l3 -17q10 -22 35 -22l16 3q22 8 22 34l-3 17q-9 22 -34 22zM456 342l-79 233l-96 -233h175z" />
    <glyph glyph-name="AE" unicode="&#xc6;" horiz-adv-x="888" 
d="M871 196l-53 -196h-484v27h53q21 0 32 23q3 7 3 14v288h-132l-102 -231q-5 -11 -5 -26q0 -43 26 -61q9 -6 20 -6h38v-28h-230v28h38q22 0 52 44q5 8 8 14l244 548h-54v27h502l44 -200h-24l-13 30q-38 88 -83 116q-34 21 -83 21h-128q-28 0 -36 -35q-2 -7 -2 -15v-200h100
q47 0 80 40q19 24 19 52v18h21v-254h-21v18q0 46 -44 78q-26 20 -55 20h-100v-267q0 -36 24 -47q6 -3 14 -3h128q94 0 144 87q11 19 22 45l13 31h24zM422 372v225q0 15 -13 28l-112 -253h125z" />
    <glyph glyph-name="Ccedilla" unicode="&#xc7;" horiz-adv-x="582" 
d="M561 228l-44 -224h-23l-2 15q-8 22 -30 22q-26 0 -84 -24q-44 -18 -74 -19l-53 2q-172 17 -219 196q-15 58 -15 127q0 139 68 238q81 118 226 118h4q64 -1 113 -38q22 -16 35 -16q21 3 48 44h18l11 -223h-20q-28 106 -95 170q-52 49 -113 49q-92 0 -152 -110
q-52 -96 -54 -219l3 -68q16 -153 90 -217q40 -34 92 -34q81 0 157 63q33 28 56 63q28 44 40 85h17zM439 -96l-2 -35q-12 -67 -96 -78q-18 -2 -41 -3l-52 -1v34l57 5q74 6 74 57q0 32 -40 42q-10 3 -21 3h-38v75l39 10v-38h28q49 0 77 -34q15 -17 15 -37z" />
    <glyph glyph-name="Egrave" unicode="&#xc8;" horiz-adv-x="615" 
d="M558 196l-52 -196h-484v27h53q21 0 32 23q3 7 3 14v533q0 21 -21 33q-7 4 -14 4h-53v27h492l44 -200h-23l-13 30q-45 104 -112 128q-24 9 -54 9h-128q-28 0 -36 -35q-2 -7 -2 -15v-200h100q47 0 80 40q19 24 19 52v18h21v-254h-21v18q0 46 -44 78q-26 20 -55 20h-100
v-267q0 -36 24 -47q6 -3 14 -3h128q111 0 166 132l13 31h23zM359 679h-40l-128 109h83z" />
    <glyph glyph-name="Eacute" unicode="&#xc9;" horiz-adv-x="615" 
d="M558 196l-52 -196h-484v27h53q21 0 32 23q3 7 3 14v533q0 21 -21 33q-7 4 -14 4h-53v27h492l44 -200h-23l-13 30q-45 104 -112 128q-24 9 -54 9h-128q-28 0 -36 -35q-2 -7 -2 -15v-200h100q47 0 80 40q19 24 19 52v18h21v-254h-21v18q0 46 -44 78q-26 20 -55 20h-100
v-267q0 -36 24 -47q6 -3 14 -3h128q111 0 166 132l13 31h23zM411 789l-128 -109h-42l85 109h85z" />
    <glyph glyph-name="Ecircumflex" unicode="&#xca;" horiz-adv-x="615" 
d="M558 196l-52 -196h-484v27h53q21 0 32 23q3 7 3 14v533q0 21 -21 33q-7 4 -14 4h-53v27h492l44 -200h-23l-13 30q-45 104 -112 128q-24 9 -54 9h-128q-28 0 -36 -35q-2 -7 -2 -15v-200h100q47 0 80 40q19 24 19 52v18h21v-254h-21v18q0 46 -44 78q-26 20 -55 20h-100
v-267q0 -36 24 -47q6 -3 14 -3h128q111 0 166 132l13 31h23zM375 672h-25l-68 66h-7l-68 -66h-27l90 116h16z" />
    <glyph glyph-name="Edieresis" unicode="&#xcb;" horiz-adv-x="615" 
d="M558 196l-52 -196h-484v27h53q21 0 32 23q3 7 3 14v533q0 21 -21 33q-7 4 -14 4h-53v27h492l44 -200h-23l-13 30q-45 104 -112 128q-24 9 -54 9h-128q-28 0 -36 -35q-2 -7 -2 -15v-200h100q47 0 80 40q19 24 19 52v18h21v-254h-21v18q0 46 -44 78q-26 20 -55 20h-100
v-267q0 -36 24 -47q6 -3 14 -3h128q111 0 166 132l13 31h23zM384 709q-32 0 -40 30l-1 19q12 31 41 35q33 0 40 -30l1 -19q-4 -29 -33 -34q-4 -1 -8 -1zM212 709q-32 0 -40 30l-1 19q12 31 41 35q33 0 40 -30l1 -19q-4 -29 -33 -34q-4 -1 -8 -1z" />
    <glyph glyph-name="Igrave" unicode="&#xcc;" horiz-adv-x="308" 
d="M300 0h-255v27h53q21 0 32 23q3 7 3 14v533q0 21 -21 33q-7 4 -14 4h-53v27h255v-27h-52q-23 0 -32 -24q-3 -6 -3 -13v-533q0 -24 22 -34q6 -3 13 -3h52v-27zM262 679h-40l-128 109h83z" />
    <glyph glyph-name="Iacute" unicode="&#xcd;" horiz-adv-x="308" 
d="M300 0h-255v27h53q21 0 32 23q3 7 3 14v533q0 21 -21 33q-7 4 -14 4h-53v27h255v-27h-52q-23 0 -32 -24q-3 -6 -3 -13v-533q0 -24 22 -34q6 -3 13 -3h52v-27zM259 789l-128 -109h-42l85 109h85z" />
    <glyph glyph-name="Icircumflex" unicode="&#xce;" horiz-adv-x="308" 
d="M300 0h-255v27h53q21 0 32 23q3 7 3 14v533q0 21 -21 33q-7 4 -14 4h-53v27h255v-27h-52q-23 0 -32 -24q-3 -6 -3 -13v-533q0 -24 22 -34q6 -3 13 -3h52v-27zM277 676h-27l-73 64h-8l-72 -64h-30l97 112h17z" />
    <glyph glyph-name="Idieresis" unicode="&#xcf;" horiz-adv-x="308" 
d="M300 0h-255v27h53q21 0 32 23q3 7 3 14v533q0 21 -21 33q-7 4 -14 4h-53v27h255v-27h-52q-23 0 -32 -24q-3 -6 -3 -13v-533q0 -24 22 -34q6 -3 13 -3h52v-27zM259 705q-32 0 -40 30l-1 19q12 31 41 35q33 0 40 -30l1 -19q-4 -29 -33 -34q-4 -1 -8 -1zM87 705
q-32 0 -40 30l-1 19q12 31 41 35q33 0 40 -30l1 -19q-4 -29 -33 -34q-4 -1 -8 -1z" />
    <glyph glyph-name="Eth" unicode="&#xd0;" horiz-adv-x="704" 
d="M669 347l-4 -49q-19 -123 -119 -209q-104 -89 -242 -89h-281v27h53q21 0 32 23q3 7 3 14v236h-80v43h80v254q0 21 -21 33q-7 4 -14 4h-53v27h381q154 0 224 -139q40 -78 41 -175zM582 359q-9 137 -81 213q-54 56 -130 56h-143q-26 0 -35 -34q-2 -8 -2 -16v-235h78v-43
h-78v-217q0 -33 22 -46q7 -4 15 -4h94q118 0 194 101q66 87 67 203q0 11 -1 22z" />
    <glyph glyph-name="Ntilde" unicode="&#xd1;" horiz-adv-x="692" 
d="M741 633h-48q-42 0 -59 -54q-6 -19 -6 -38v-541h-64l-388 598v-478q0 -45 28 -75q16 -17 37 -17h38v-28h-239v28h49q39 0 58 52q7 21 7 40v477q0 22 -22 33q-7 4 -14 4h-52v27h156l383 -581v461q0 52 -29 79q-15 13 -35 13h-38v28h238v-28zM272 706h12q22 34 60 35
q11 0 31 -17t43 -18l17 3q31 12 39 52l1 21h-7q-20 -27 -52 -30l-12 3l-38 26q-9 5 -19 5q-38 -1 -62 -39q-12 -20 -13 -41z" />
    <glyph glyph-name="Ograve" unicode="&#xd2;" horiz-adv-x="734" 
d="M359 -21q-172 0 -266 127q-68 93 -69 219q0 89 37 166q62 129 196 167q48 13 101 13q172 0 265 -127q68 -93 68 -219q1 -54 -13 -105q-38 -136 -151 -200q-73 -41 -168 -41zM359 0h-1q126 0 193 122q47 86 47 202q0 65 -16 125q-37 134 -134 181q-41 20 -89 20
q-125 0 -191 -122q-47 -87 -47 -202q0 -136 63 -229q66 -97 175 -97zM458 679h-40l-128 109h83z" />
    <glyph glyph-name="Oacute" unicode="&#xd3;" horiz-adv-x="734" 
d="M359 -21q-172 0 -266 127q-68 93 -69 219q0 89 37 166q62 129 196 167q48 13 101 13q172 0 265 -127q68 -93 68 -219q1 -54 -13 -105q-38 -136 -151 -200q-73 -41 -168 -41zM359 0h-1q126 0 193 122q47 86 47 202q0 65 -16 125q-37 134 -134 181q-41 20 -89 20
q-125 0 -191 -122q-47 -87 -47 -202q0 -136 63 -229q66 -97 175 -97zM458 789l-128 -109h-42l85 109h85z" />
    <glyph glyph-name="Ocircumflex" unicode="&#xd4;" horiz-adv-x="734" 
d="M359 -21q-172 0 -266 127q-68 93 -69 219q0 89 37 166q62 129 196 167q48 13 101 13q172 0 265 -127q68 -93 68 -219q1 -54 -13 -105q-38 -136 -151 -200q-73 -41 -168 -41zM359 0h-1q126 0 193 122q47 86 47 202q0 65 -16 125q-37 134 -134 181q-41 20 -89 20
q-125 0 -191 -122q-47 -87 -47 -202q0 -136 63 -229q66 -97 175 -97zM466 676h-27l-74 64h-7l-73 -64h-29l97 112h16z" />
    <glyph glyph-name="Otilde" unicode="&#xd5;" horiz-adv-x="734" 
d="M359 -21q-172 0 -266 127q-68 93 -69 219q0 89 37 166q62 129 196 167q48 13 101 13q172 0 265 -127q68 -93 68 -219q1 -54 -13 -105q-38 -136 -151 -200q-73 -41 -168 -41zM359 0h-1q126 0 193 122q47 86 47 202q0 65 -16 125q-37 134 -134 181q-41 20 -89 20
q-125 0 -191 -122q-47 -87 -47 -202q0 -136 63 -229q66 -97 175 -97zM283 706h12q22 34 60 35q11 0 31 -17t43 -18l17 3q31 12 39 52l1 21h-7q-20 -27 -52 -30l-12 3l-38 26q-9 5 -19 5q-38 -1 -62 -39q-12 -20 -13 -41z" />
    <glyph glyph-name="Odieresis" unicode="&#xd6;" horiz-adv-x="734" 
d="M359 -21q-172 0 -266 127q-68 93 -69 219q0 89 37 166q62 129 196 167q48 13 101 13q172 0 265 -127q68 -93 68 -219q1 -54 -13 -105q-38 -136 -151 -200q-73 -41 -168 -41zM359 0h-1q126 0 193 122q47 86 47 202q0 65 -16 125q-37 134 -134 181q-41 20 -89 20
q-125 0 -191 -122q-47 -87 -47 -202q0 -136 63 -229q66 -97 175 -97zM444 700q-32 0 -40 30l-1 19q12 31 41 35q33 0 40 -30l1 -19q-4 -29 -33 -34q-4 -1 -8 -1zM272 700q-32 0 -40 30l-1 19q12 31 41 35q33 0 40 -30l1 -19q-4 -29 -33 -34q-4 -1 -8 -1z" />
    <glyph glyph-name="multiply" unicode="&#xd7;" horiz-adv-x="311" 
d="M258 207l-35 -35l-74 73l-75 -74l-35 35l75 73l-75 73l35 35l75 -73l74 73l35 -35l-74 -72z" />
    <glyph glyph-name="Oslash" unicode="&#xd8;" horiz-adv-x="734" 
d="M565 711l-41 -79q114 -62 153 -198q15 -53 15 -109q-1 -142 -86 -240q-92 -106 -247 -106q-87 0 -157 35l-45 -86h-66l61 117q-102 79 -123 221q-5 30 -5 60q0 143 86 240q93 105 248 105q58 0 112 -16l29 56h66zM503 591l-281 -538q58 -53 136 -53q126 0 192 122
q48 87 48 202q0 147 -72 241q-11 14 -23 26zM455 627q-43 23 -96 23q-124 0 -190 -121q-48 -87 -48 -204q0 -132 60 -224z" />
    <glyph glyph-name="Ugrave" unicode="&#xd9;" horiz-adv-x="643" 
d="M676 634h-53q-23 0 -32 -24q-3 -6 -3 -13v-377q0 -90 -68 -163q-64 -70 -146 -70q-146 2 -200 55q-46 46 -46 139v416q0 21 -21 33q-7 4 -14 4h-53v27h256v-27h-53q-23 0 -32 -24q-3 -6 -3 -13v-465q0 -69 73 -104q40 -19 90 -19q79 0 134 71q46 58 46 129v388
q0 22 -21 33q-8 4 -15 4h-52v27h213v-27zM431 679h-40l-128 109h83z" />
    <glyph glyph-name="Uacute" unicode="&#xda;" horiz-adv-x="643" 
d="M676 634h-53q-23 0 -32 -24q-3 -6 -3 -13v-377q0 -90 -68 -163q-64 -70 -146 -70q-146 2 -200 55q-46 46 -46 139v416q0 21 -21 33q-7 4 -14 4h-53v27h256v-27h-53q-23 0 -32 -24q-3 -6 -3 -13v-465q0 -69 73 -104q40 -19 90 -19q79 0 134 71q46 58 46 129v388
q0 22 -21 33q-8 4 -15 4h-52v27h213v-27zM477 789l-128 -109h-42l85 109h85z" />
    <glyph glyph-name="Ucircumflex" unicode="&#xdb;" horiz-adv-x="643" 
d="M676 634h-53q-23 0 -32 -24q-3 -6 -3 -13v-377q0 -90 -68 -163q-64 -70 -146 -70q-146 2 -200 55q-46 46 -46 139v416q0 21 -21 33q-7 4 -14 4h-53v27h256v-27h-53q-23 0 -32 -24q-3 -6 -3 -13v-465q0 -69 73 -104q40 -19 90 -19q79 0 134 71q46 58 46 129v388
q0 22 -21 33q-8 4 -15 4h-52v27h213v-27zM480 676h-27l-74 64h-7l-73 -64h-29l97 112h16z" />
    <glyph glyph-name="Udieresis" unicode="&#xdc;" horiz-adv-x="643" 
d="M676 634h-53q-23 0 -32 -24q-3 -6 -3 -13v-377q0 -90 -68 -163q-64 -70 -146 -70q-146 2 -200 55q-46 46 -46 139v416q0 21 -21 33q-7 4 -14 4h-53v27h256v-27h-53q-23 0 -32 -24q-3 -6 -3 -13v-465q0 -69 73 -104q40 -19 90 -19q79 0 134 71q46 58 46 129v388
q0 22 -21 33q-8 4 -15 4h-52v27h213v-27zM456 695q-32 0 -40 30l-1 19q12 31 41 35q33 0 40 -30l1 -19q-4 -29 -33 -34q-4 -1 -8 -1zM284 695q-32 0 -40 30l-1 19q12 31 41 35q33 0 40 -30l1 -19q-4 -29 -33 -34q-4 -1 -8 -1z" />
    <glyph glyph-name="Yacute" unicode="&#xdd;" horiz-adv-x="605" 
d="M648 633h-35q-42 0 -116 -97q-4 -6 -8 -11l-137 -188v-273q0 -24 21 -34q6 -3 13 -3h53v-27h-256v27h53q21 0 32 23q4 7 4 14v270l-149 254q-22 38 -55 46q-6 2 -12 2h-8v25h215v-28h-29q-34 0 -35 -20l4 -18q3 -5 6 -11l132 -227l103 147q45 62 45 99q0 30 -37 30h-26
v28h222v-28zM462 786l-128 -109h-42l85 109h85z" />
    <glyph glyph-name="Thorn" unicode="&#xde;" horiz-adv-x="547" 
d="M507 294v-42q-11 -99 -106 -124q-26 -7 -56 -7h-147v-270q0 -24 22 -34q6 -3 13 -3h52v-27h-255v27h53q21 0 32 23q3 7 3 14v747q0 21 -21 33q-7 4 -14 4h-53v27h255v-27h-52q-23 0 -32 -24q-3 -6 -3 -13v-177h162q138 0 147 -127zM418 292q0 62 -66 84q-25 9 -54 9h-100
v-233h99q98 0 116 85q5 23 5 55z" />
    <glyph glyph-name="germandbls" unicode="&#xdf;" horiz-adv-x="573" 
d="M435 143l-2 33q-11 66 -69 102q-34 21 -72 21v29q75 16 100 85q10 26 10 56v5q-5 153 -116 171q-15 2 -33 2q-46 0 -70 -38q-11 -18 -11 -39v-570h-151v21h45q16 0 23 18q2 5 2 9v365h-45v23h45v98q0 133 195 135l51 -3q112 -16 150 -100q14 -31 15 -65q0 -71 -52 -112
q-19 -15 -43 -22l1 -13q103 -52 124 -143q4 -18 4 -37q-1 -82 -70 -133q-59 -44 -147 -44q-54 0 -95 45q-26 28 -26 58v4q3 57 43 68l19 1q32 -5 42 -38l3 -22q-1 -34 -33 -42l-20 -1h-2q10 -24 37 -45q12 -10 32 -10q47 0 84 44q29 35 32 84z" />
    <glyph glyph-name="agrave" unicode="&#xe0;" horiz-adv-x="497" 
d="M464 43q0 -31 -41 -47q-11 -4 -21 -5l-28 1q-56 11 -61 80q-29 -54 -76 -74q-17 -7 -34 -7q-89 0 -123 54q-15 23 -15 54v5q3 74 82 110q10 5 96 33q47 16 70 33v102q0 38 -41 52q-12 4 -26 4q-45 0 -68 -14v-24q0 -3 -4 -21q-13 -55 -33 -66q-7 -4 -17 -4q-30 0 -31 30
l4 22q18 51 79 84q53 27 120 27h5q43 0 71 -28q22 -22 22 -55v-316q0 -28 20 -37l11 -2q20 1 37 37q1 3 2 5v-33zM313 117v133l-98 -36q-65 -30 -69 -80v-41q6 -48 47 -56q14 -3 41 -3q36 0 76 76zM323 523h-40l-128 109h83z" />
    <glyph glyph-name="aacute" unicode="&#xe1;" horiz-adv-x="497" 
d="M464 43q0 -31 -41 -47q-11 -4 -21 -5l-28 1q-56 11 -61 80q-29 -54 -76 -74q-17 -7 -34 -7q-89 0 -123 54q-15 23 -15 54v5q3 74 82 110q10 5 96 33q47 16 70 33v102q0 38 -41 52q-12 4 -26 4q-45 0 -68 -14v-24q0 -3 -4 -21q-13 -55 -33 -66q-7 -4 -17 -4q-30 0 -31 30
l4 22q18 51 79 84q53 27 120 27h5q43 0 71 -28q22 -22 22 -55v-316q0 -28 20 -37l11 -2q20 1 37 37q1 3 2 5v-33zM313 117v133l-98 -36q-65 -30 -69 -80v-41q6 -48 47 -56q14 -3 41 -3q36 0 76 76zM337 624l-128 -109h-42l85 109h85z" />
    <glyph glyph-name="acircumflex" unicode="&#xe2;" horiz-adv-x="497" 
d="M394 513h-32l-91 87h-9l-89 -87h-36l119 153h20zM464 43q0 -31 -41 -47q-11 -4 -21 -5l-28 1q-56 11 -61 80q-29 -54 -76 -74q-17 -7 -34 -7q-89 0 -123 54q-15 23 -15 54v5q3 74 82 110q10 5 96 33q47 16 70 33v102q0 38 -41 52q-12 4 -26 4q-45 0 -68 -14v-24
q0 -3 -4 -21q-13 -55 -33 -66q-7 -4 -17 -4q-30 0 -31 30l4 22q18 51 79 84q53 27 120 27h5q43 0 71 -28q22 -22 22 -55v-316q0 -28 20 -37l11 -2q20 1 37 37q1 3 2 5v-33zM313 117v133l-98 -36q-65 -30 -69 -80v-41q6 -48 47 -56q14 -3 41 -3q36 0 76 76z" />
    <glyph glyph-name="atilde" unicode="&#xe3;" horiz-adv-x="497" 
d="M464 43q0 -31 -41 -47q-11 -4 -21 -5l-28 1q-56 11 -61 80q-29 -54 -76 -74q-17 -7 -34 -7q-89 0 -123 54q-15 23 -15 54v5q3 74 82 110q10 5 96 33q47 16 70 33v102q0 38 -41 52q-12 4 -26 4q-45 0 -68 -14v-24q0 -3 -4 -21q-13 -55 -33 -66q-7 -4 -17 -4q-30 0 -31 30
l4 22q18 51 79 84q53 27 120 27h5q43 0 71 -28q22 -22 22 -55v-316q0 -28 20 -37l11 -2q20 1 37 37q1 3 2 5v-33zM313 117v133l-98 -36q-65 -30 -69 -80v-41q6 -48 47 -56q14 -3 41 -3q36 0 76 76zM157 562h12q22 34 60 35q11 0 31 -17t43 -18l17 3q31 12 39 52l1 21h-7
q-20 -27 -52 -30l-12 3l-38 26q-9 5 -19 5q-38 -1 -62 -39q-12 -20 -13 -41z" />
    <glyph glyph-name="adieresis" unicode="&#xe4;" horiz-adv-x="497" 
d="M464 43q0 -31 -41 -47q-11 -4 -21 -5l-28 1q-56 11 -61 80q-29 -54 -76 -74q-17 -7 -34 -7q-89 0 -123 54q-15 23 -15 54v5q3 74 82 110q10 5 96 33q47 16 70 33v102q0 38 -41 52q-12 4 -26 4q-45 0 -68 -14v-24q0 -3 -4 -21q-13 -55 -33 -66q-7 -4 -17 -4q-30 0 -31 30
l4 22q18 51 79 84q53 27 120 27h5q43 0 71 -28q22 -22 22 -55v-316q0 -28 20 -37l11 -2q20 1 37 37q1 3 2 5v-33zM313 117v133l-98 -36q-65 -30 -69 -80v-41q6 -48 47 -56q14 -3 41 -3q36 0 76 76zM367 525q-32 0 -40 30l-1 19q12 31 41 35q33 0 40 -30l1 -19
q-4 -29 -33 -34q-4 -1 -8 -1zM195 525q-32 0 -40 30l-1 19q12 31 41 35q33 0 40 -30l1 -19q-4 -29 -33 -34q-4 -1 -8 -1z" />
    <glyph glyph-name="aring" unicode="&#xe5;" horiz-adv-x="497" 
d="M275 659q52 -1 68 -46q5 -13 5 -26q-1 -46 -39 -66q-16 -8 -36 -9l-24 3q-41 11 -47 56v26q7 45 47 58q12 4 26 4zM275 630l-18 -3q-25 -10 -25 -40q0 -31 28 -40q6 -2 14 -2q34 0 41 31l1 19q-4 29 -33 34q-4 1 -8 1zM464 43q0 -31 -41 -47q-11 -4 -21 -5l-28 1
q-56 11 -61 80q-29 -54 -76 -74q-17 -7 -34 -7q-89 0 -123 54q-15 23 -15 54v5q3 74 82 110q10 5 96 33q47 16 70 33v102q0 38 -41 52q-12 4 -26 4q-45 0 -68 -14v-24q0 -3 -4 -21q-13 -55 -33 -66q-7 -4 -17 -4q-30 0 -31 30l4 22q18 51 79 84q53 27 120 27h5q43 0 71 -28
q22 -22 22 -55v-316q0 -28 20 -37l11 -2q20 1 37 37q1 3 2 5v-33zM313 117v133l-98 -36q-65 -30 -69 -80v-41q6 -48 47 -56q14 -3 41 -3q36 0 76 76z" />
    <glyph glyph-name="ae" unicode="&#xe6;" horiz-adv-x="661" 
d="M609 287h-283q-3 -21 -3 -41q3 -169 102 -170l63 2q63 7 97 58q6 10 12 21v-63q-51 -103 -165 -103q-111 0 -160 96q-21 -51 -67 -80q-26 -16 -51 -16q-79 0 -115 49q-18 25 -18 56v5q4 94 135 139l85 25v115q0 40 -43 53q-12 3 -24 3q-46 0 -70 -15l1 -28q0 -7 -3 -18
q-13 -53 -32 -63q-8 -4 -18 -4q-24 0 -24 28q0 41 45 82q58 54 146 54h4q46 0 68 -36q8 -13 11 -30q58 66 143 66q71 0 123 -61q42 -49 42 -107q0 -8 -1 -17zM533 318l-3 37q-13 72 -57 92q-13 6 -28 6q-73 0 -102 -91q-7 -19 -12 -44h202zM260 114q-19 57 -19 100v36
q-6 -2 -30 -12q-67 -31 -87 -57q-16 -20 -17 -47l2 -34q12 -62 66 -69q5 -1 10 -1l19 3q32 11 54 76q1 2 2 5z" />
    <glyph glyph-name="ccedilla" unicode="&#xe7;" horiz-adv-x="454" 
d="M410 107q-33 -75 -98 -104q-28 -12 -57 -12q-112 0 -175 91q-43 64 -43 144q0 110 80 184q68 62 155 62q79 0 118 -60q17 -26 18 -54q0 -21 -12 -34q-11 -15 -33 -16l-17 3q-30 12 -35 56l1 28q1 2 1 3q2 11 18 30q-20 20 -44 21q-4 1 -15 1l-29 -3q-65 -14 -96 -94
q-14 -37 -15 -77l1 -59q14 -145 114 -162q9 -2 19 -2l30 2q66 14 114 102v-50zM347 -96l-2 -35q-12 -67 -96 -78q-18 -2 -41 -3l-52 -1v34l57 5q74 6 74 57q0 32 -40 42q-10 3 -21 3h-38v75l39 10v-38h28q49 0 77 -34q15 -17 15 -37z" />
    <glyph glyph-name="egrave" unicode="&#xe8;" horiz-adv-x="448" 
d="M427 290h-306l-8 -43v-1q0 -86 54 -135q33 -30 72 -30q132 0 184 100v-88q-30 -61 -108 -89q-35 -13 -69 -13q-105 0 -166 78q-50 63 -50 159v14q3 99 74 168q63 62 148 62q87 0 138 -66q37 -48 37 -116zM348 318q0 72 -38 112q-24 26 -58 26q-93 0 -124 -130l-2 -8h222z
M311 523h-40l-128 109h83z" />
    <glyph glyph-name="eacute" unicode="&#xe9;" horiz-adv-x="448" 
d="M427 290h-306l-8 -43v-1q0 -86 54 -135q33 -30 72 -30q132 0 184 100v-88q-30 -61 -108 -89q-35 -13 -69 -13q-105 0 -166 78q-50 63 -50 159v14q3 99 74 168q63 62 148 62q87 0 138 -66q37 -48 37 -116zM348 318q0 72 -38 112q-24 26 -58 26q-93 0 -124 -130l-2 -8h222z
M349 624l-128 -109h-42l85 109h85z" />
    <glyph glyph-name="ecircumflex" unicode="&#xea;" horiz-adv-x="448" 
d="M375 513h-33l-90 87h-9l-89 -87h-36l119 153h20zM427 290h-306l-8 -43v-1q0 -86 54 -135q33 -30 72 -30q132 0 184 100v-88q-30 -61 -108 -89q-35 -13 -69 -13q-105 0 -166 78q-50 63 -50 159v14q3 99 74 168q63 62 148 62q87 0 138 -66q37 -48 37 -116zM348 318
q0 72 -38 112q-24 26 -58 26q-93 0 -124 -130l-2 -8h222z" />
    <glyph glyph-name="edieresis" unicode="&#xeb;" horiz-adv-x="448" 
d="M427 290h-306l-8 -43v-1q0 -86 54 -135q33 -30 72 -30q132 0 184 100v-88q-30 -61 -108 -89q-35 -13 -69 -13q-105 0 -166 78q-50 63 -50 159v14q3 99 74 168q63 62 148 62q87 0 138 -66q37 -48 37 -116zM348 318q0 72 -38 112q-24 26 -58 26q-93 0 -124 -130l-2 -8h222z
M338 525q-32 0 -40 30l-1 19q12 31 41 35q33 0 40 -30l1 -19q-4 -29 -33 -34q-4 -1 -8 -1zM166 525q-32 0 -40 30l-1 19q12 31 41 35q33 0 40 -30l1 -19q-4 -29 -33 -34q-4 -1 -8 -1z" />
    <glyph glyph-name="igrave" unicode="&#xec;" horiz-adv-x="239" 
d="M253 0h-222v21h45q17 0 24 18q2 5 2 9v326l-53 18v15l133 67v-426q0 -17 17 -25q5 -2 9 -2h45v-21zM197 523h-40l-128 109h83z" />
    <glyph glyph-name="iacute" unicode="&#xed;" horiz-adv-x="239" 
d="M253 0h-222v21h45q17 0 24 18q2 5 2 9v326l-53 18v15l133 67v-426q0 -17 17 -25q5 -2 9 -2h45v-21zM210 614l-128 -109h-42l85 109h85z" />
    <glyph glyph-name="icircumflex" unicode="&#xee;" horiz-adv-x="239" 
d="M261 513h-33l-90 87h-9l-89 -87h-36l118 153h21zM253 0h-222v21h45q17 0 24 18q2 5 2 9v326l-53 18v15l133 67v-426q0 -17 17 -25q5 -2 9 -2h45v-21z" />
    <glyph glyph-name="idieresis" unicode="&#xef;" horiz-adv-x="239" 
d="M253 0h-222v21h45q17 0 24 18q2 5 2 9v326l-53 18v15l133 67v-426q0 -17 17 -25q5 -2 9 -2h45v-21zM212 525q-32 0 -40 30l-1 19q12 31 41 35q33 0 40 -30l1 -19q-4 -29 -33 -34q-4 -1 -8 -1zM40 525q-32 0 -40 30l-1 19q12 31 41 35q33 0 40 -30l1 -19q-4 -29 -33 -34
q-4 -1 -8 -1z" />
    <glyph glyph-name="eth" unicode="&#xf0;" horiz-adv-x="465" 
d="M431 493h-65q18 -59 17 -134q0 -106 -30 -192q-35 -98 -125 -143q-44 -21 -88 -21h-8q-93 4 -103 116l-1 48q5 60 25 113q21 55 85 103q56 42 102 42l24 -3q23 -7 38 -27l-1 45q-2 15 -16 53h-78l1 43h59q-10 33 -55 63q-33 21 -59 21q-11 0 -19 -4l-24 -11l5 26l33 10
q14 4 31 4q32 0 67 -14q66 -27 94 -75q6 -10 9 -20h82v-43zM267 386l-19 1q-51 -9 -99 -113q-47 -101 -47 -182q0 -37 13 -50q5 -6 12 -7h18q48 10 101 100q57 98 59 178l-2 31q-8 35 -36 42z" />
    <glyph glyph-name="ntilde" unicode="&#xf1;" horiz-adv-x="531" 
d="M538 0h-221v21h45q16 0 23 18q2 5 2 9v315q0 43 -37 67q-19 12 -43 12q-59 -2 -119 -60q-5 -4 -9 -9v-325q0 -17 17 -25q5 -2 9 -2h44v-21h-221v21h45q18 0 24 20q1 3 1 7v325l-54 15v19l135 67v-71q55 55 125 67q8 2 17 2l45 -1q92 -9 101 -63q1 -5 1 -11v-349
q0 -17 17 -25q4 -2 8 -2h45v-21zM161 558h12q22 34 60 35q11 0 31 -17t43 -18l17 3q31 12 39 52l1 21h-7q-20 -27 -52 -30l-12 3l-38 26q-9 5 -19 5q-38 -1 -62 -39q-12 -20 -13 -41z" />
    <glyph glyph-name="ograve" unicode="&#xf2;" horiz-adv-x="493" 
d="M250 -9q-123 0 -184 101q-37 61 -37 139q0 111 68 180q60 61 153 61q124 0 185 -101q38 -61 38 -139q0 -51 -17 -98q-37 -100 -131 -131q-35 -12 -75 -12zM250 6q74 0 110 96q21 57 21 128q0 65 -18 119q-31 96 -100 105q-6 1 -13 1q-74 0 -111 -96q-21 -57 -21 -128
q0 -65 18 -119q32 -96 101 -105q6 -1 13 -1zM311 523h-40l-128 109h83z" />
    <glyph glyph-name="oacute" unicode="&#xf3;" horiz-adv-x="493" 
d="M250 -9q-123 0 -184 101q-37 61 -37 139q0 111 68 180q60 61 153 61q124 0 185 -101q38 -61 38 -139q0 -51 -17 -98q-37 -100 -131 -131q-35 -12 -75 -12zM250 6q74 0 110 96q21 57 21 128q0 65 -18 119q-31 96 -100 105q-6 1 -13 1q-74 0 -111 -96q-21 -57 -21 -128
q0 -65 18 -119q32 -96 101 -105q6 -1 13 -1zM330 619l-128 -109h-42l85 109h85z" />
    <glyph glyph-name="ocircumflex" unicode="&#xf4;" horiz-adv-x="493" 
d="M377 513h-32l-91 87h-9l-89 -87h-36l119 153h20zM250 -9q-123 0 -184 101q-37 61 -37 139q0 111 68 180q60 61 153 61q124 0 185 -101q38 -61 38 -139q0 -51 -17 -98q-37 -100 -131 -131q-35 -12 -75 -12zM250 6q74 0 110 96q21 57 21 128q0 65 -18 119q-31 96 -100 105
q-6 1 -13 1q-74 0 -111 -96q-21 -57 -21 -128q0 -65 18 -119q32 -96 101 -105q6 -1 13 -1z" />
    <glyph glyph-name="otilde" unicode="&#xf5;" horiz-adv-x="493" 
d="M250 -9q-123 0 -184 101q-37 61 -37 139q0 111 68 180q60 61 153 61q124 0 185 -101q38 -61 38 -139q0 -51 -17 -98q-37 -100 -131 -131q-35 -12 -75 -12zM250 6q74 0 110 96q21 57 21 128q0 65 -18 119q-31 96 -100 105q-6 1 -13 1q-74 0 -111 -96q-21 -57 -21 -128
q0 -65 18 -119q32 -96 101 -105q6 -1 13 -1zM147 562h12q22 34 60 35q11 0 31 -17t43 -18l17 3q31 12 39 52l1 21h-7q-20 -27 -52 -30l-12 3l-38 26q-9 5 -19 5q-38 -1 -62 -39q-12 -20 -13 -41z" />
    <glyph glyph-name="odieresis" unicode="&#xf6;" horiz-adv-x="493" 
d="M250 -9q-123 0 -184 101q-37 61 -37 139q0 111 68 180q60 61 153 61q124 0 185 -101q38 -61 38 -139q0 -51 -17 -98q-37 -100 -131 -131q-35 -12 -75 -12zM250 6q74 0 110 96q21 57 21 128q0 65 -18 119q-31 96 -100 105q-6 1 -13 1q-74 0 -111 -96q-21 -57 -21 -128
q0 -65 18 -119q32 -96 101 -105q6 -1 13 -1zM337 525q-32 0 -40 30l-1 19q12 31 41 35q33 0 40 -30l1 -19q-4 -29 -33 -34q-4 -1 -8 -1zM165 525q-32 0 -40 30l-1 19q12 31 41 35q33 0 40 -30l1 -19q-4 -29 -33 -34q-4 -1 -8 -1z" />
    <glyph glyph-name="divide" unicode="&#xf7;" horiz-adv-x="364" 
d="M184 425q31 -2 36 -31v-18q-7 -29 -40 -29q-31 2 -36 32v18q7 27 35 28h5zM312 257h-279v39h279v-39zM175 109q-31 0 -38 29v18q5 29 38 31q30 0 37 -29v-18q-5 -29 -37 -31z" />
    <glyph glyph-name="oslash" unicode="&#xf8;" horiz-adv-x="493" 
d="M437 538l-56 -107q78 -58 90 -167l2 -47q-6 -111 -79 -175q-59 -51 -144 -51q-49 0 -89 17l-42 -80h-66l58 111q-74 62 -81 174l1 47q10 111 87 170q55 42 132 42q41 0 80 -13l41 79h66zM314 430q-28 25 -64 25q-75 0 -111 -96q-22 -57 -22 -128q0 -76 24 -134zM352 376
l-175 -337q30 -33 73 -33q74 0 110 96q21 57 21 128q0 84 -29 146z" />
    <glyph glyph-name="ugrave" unicode="&#xf9;" horiz-adv-x="544" 
d="M527 61l-139 -70v74q-50 -61 -126 -72q-13 -2 -26 -2q-62 0 -80 5q-71 19 -71 120v299q0 17 -17 25q-4 2 -8 2h-45v21h151v-352q0 -62 50 -79q13 -5 29 -5h6q66 4 125 59q6 7 12 13v316q0 17 -17 25q-4 2 -8 2h-45v21h151v-366l58 -16v-20zM328 523h-40l-128 109h83z" />
    <glyph glyph-name="uacute" unicode="&#xfa;" horiz-adv-x="544" 
d="M527 61l-139 -70v74q-50 -61 -126 -72q-13 -2 -26 -2q-62 0 -80 5q-71 19 -71 120v299q0 17 -17 25q-4 2 -8 2h-45v21h151v-352q0 -62 50 -79q13 -5 29 -5h6q66 4 125 59q6 7 12 13v316q0 17 -17 25q-4 2 -8 2h-45v21h151v-366l58 -16v-20zM352 614l-128 -109h-42l85 109
h85z" />
    <glyph glyph-name="ucircumflex" unicode="&#xfb;" horiz-adv-x="544" 
d="M378 513h-33l-90 87h-9l-89 -87h-36l118 153h21zM527 61l-139 -70v74q-50 -61 -126 -72q-13 -2 -26 -2q-62 0 -80 5q-71 19 -71 120v299q0 17 -17 25q-4 2 -8 2h-45v21h151v-352q0 -62 50 -79q13 -5 29 -5h6q66 4 125 59q6 7 12 13v316q0 17 -17 25q-4 2 -8 2h-45v21h151
v-366l58 -16v-20z" />
    <glyph glyph-name="udieresis" unicode="&#xfc;" horiz-adv-x="544" 
d="M527 61l-139 -70v74q-50 -61 -126 -72q-13 -2 -26 -2q-62 0 -80 5q-71 19 -71 120v299q0 17 -17 25q-4 2 -8 2h-45v21h151v-352q0 -62 50 -79q13 -5 29 -5h6q66 4 125 59q6 7 12 13v316q0 17 -17 25q-4 2 -8 2h-45v21h151v-366l58 -16v-20zM348 525q-32 0 -40 30l-1 19
q12 31 41 35q33 0 40 -30l1 -19q-4 -29 -33 -34q-4 -1 -8 -1zM176 525q-32 0 -40 30l-1 19q12 31 41 35q33 0 40 -30l1 -19q-4 -29 -33 -34q-4 -1 -8 -1z" />
    <glyph glyph-name="yacute" unicode="&#xfd;" horiz-adv-x="452" 
d="M467 442h-19q-28 0 -56 -43q-4 -7 -7 -12l-204 -426q-14 -29 -48 -46q-16 -9 -30 -9q-49 0 -64 38q-4 9 -4 20q0 32 29 41q7 2 16 2q36 0 42 -31l-1 -18q-2 -9 -7 -15q-6 -7 -15 -11q44 0 65 45l21 44l-4 2l-118 395q-4 15 -24 22q-4 2 -8 2h-25v21h184v-21h-28
q-19 0 -19 -20l1 -10l90 -290l110 235q8 17 9 39l-4 22q-7 24 -32 24h-23v21h173v-21zM342 624l-128 -109h-42l85 109h85z" />
    <glyph glyph-name="thorn" unicode="&#xfe;" horiz-adv-x="561" 
d="M526 243l-3 -42q-15 -96 -91 -161q-57 -48 -116 -49l-44 3q-55 8 -87 34v-127q0 -18 17 -25q4 -2 8 -2h45v-21h-221v21h45q16 0 23 19q2 4 2 8v619q0 17 -17 25q-4 2 -8 2h-45v21h221v-21h-45q-16 0 -23 -18q-2 -5 -2 -9v-96q57 45 131 48l47 -2q159 -22 163 -227z
M431 239q0 130 -69 190q-26 22 -49 22h-4q-99 -14 -120 -89q-4 -16 -4 -34v-209q13 -82 84 -102q19 -6 43 -6h4q69 2 99 105q16 54 16 123z" />
    <glyph glyph-name="ydieresis" unicode="&#xff;" horiz-adv-x="452" 
d="M467 442h-19q-28 0 -56 -43q-4 -7 -7 -12l-204 -426q-14 -29 -48 -46q-16 -9 -30 -9q-49 0 -64 38q-4 9 -4 20q0 32 29 41q7 2 16 2q36 0 42 -31l-1 -18q-2 -9 -7 -15q-6 -7 -15 -11q44 0 65 45l21 44l-4 2l-118 395q-4 15 -24 22q-4 2 -8 2h-25v21h184v-21h-28
q-19 0 -19 -20l1 -10l90 -290l110 235q8 17 9 39l-4 22q-7 24 -32 24h-23v21h173v-21zM331 525q-32 0 -40 30l-1 19q12 31 41 35q33 0 40 -30l1 -19q-4 -29 -33 -34q-4 -1 -8 -1zM159 525q-32 0 -40 30l-1 19q12 31 41 35q33 0 40 -30l1 -19q-4 -29 -33 -34q-4 -1 -8 -1z
" />
    <glyph glyph-name="iogonek" unicode="&#x12f;" horiz-adv-x="239" 
d="M106 0h44q-38 -6 -48 -49l-2 -26v-5q5 -33 63 -43l28 -1q33 3 56 35l21 -26q-34 -55 -96 -55h-4q-62 1 -93 42q-17 21 -17 48q0 54 48 80zM176 583q0 -31 -30 -38h-18q-29 6 -31 38q0 32 30 39h18q29 -6 31 -39zM253 0h-222v21h45q17 0 24 18q2 5 2 9v326l-53 18v15
l133 67v-426q0 -17 17 -25q5 -2 9 -2h45v-21z" />
    <glyph glyph-name="Ohungarumlaut" unicode="&#x150;" horiz-adv-x="734" 
d="M359 -21q-172 0 -266 127q-68 93 -69 219q0 89 37 166q62 129 196 167q48 13 101 13q172 0 265 -127q68 -93 68 -219q1 -54 -13 -105q-38 -136 -151 -200q-73 -41 -168 -41zM359 0h-1q126 0 193 122q47 86 47 202q0 65 -16 125q-37 134 -134 181q-41 20 -89 20
q-125 0 -191 -122q-47 -87 -47 -202q0 -136 63 -229q66 -97 175 -97zM384 787h-62l-63 -80h31zM527 787h-63l-62 -80h31z" />
    <glyph glyph-name="ohungarumlaut" unicode="&#x151;" horiz-adv-x="493" 
d="M250 -9q-123 0 -184 101q-37 61 -37 139q0 111 68 180q60 61 153 61q124 0 185 -101q38 -61 38 -139q0 -51 -17 -98q-37 -100 -131 -131q-35 -12 -75 -12zM250 6q74 0 110 96q21 57 21 128q0 65 -18 119q-31 96 -100 105q-6 1 -13 1q-74 0 -111 -96q-21 -57 -21 -128
q0 -65 18 -119q32 -96 101 -105q6 -1 13 -1zM309 643h-85l-85 -109h42zM461 643h-85l-85 -109h42z" />
    <glyph glyph-name="OE" unicode="&#x152;" horiz-adv-x="1006" 
d="M969 196l-53 -196l-506 -2h-23q-188 0 -288 124q-72 88 -72 207q0 82 36 154q65 125 208 163q54 15 116 15h538l44 -200h-22l-14 30q-39 84 -77 112q-35 26 -88 26h-128q-30 0 -35 -39q-1 -5 -1 -11v-201h98q47 0 78 40q20 24 20 52v18h24v-256h-24v18q0 47 -42 79
q-27 21 -56 21h-98v-276q1 -28 24 -39q6 -3 14 -3h126q89 0 140 84q12 20 25 49l14 31h22zM526 89v481q-50 66 -122 73q-7 1 -14 1q-135 0 -212 -117q-58 -89 -59 -206q0 -92 38 -165q62 -122 194 -137q18 -2 36 -2q19 0 57 9q47 17 82 63z" />
    <glyph glyph-name="oe" unicode="&#x153;" horiz-adv-x="798" 
d="M746 290h-306q-2 -28 -2 -44q1 -105 63 -145q25 -17 57 -17l42 3q88 15 130 95v-88q-51 -103 -165 -103q-96 0 -136 45q-14 15 -24 37q-42 -82 -163 -82q-122 0 -182 101q-36 61 -36 139q0 112 68 181q59 60 150 60q120 0 163 -92q35 68 90 84q27 8 63 8q62 0 126 -58
q63 -57 63 -114q0 -5 -1 -10zM669 318q0 55 -39 100q-32 38 -72 38q-70 0 -99 -86q-7 -21 -14 -52h224zM242 6q74 0 110 96q21 57 21 128q0 65 -18 119q-31 96 -100 105q-6 1 -13 1q-74 0 -111 -96q-21 -57 -21 -128q0 -65 18 -119q32 -96 101 -105q6 -1 13 -1z" />
    <glyph glyph-name="Scaron" unicode="&#x160;" horiz-adv-x="525" 
d="M140 786h25l76 -58h8l76 58h23l-95 -94h-17zM492 174q0 -69 -55 -123q-62 -61 -160 -61q-47 0 -97 28q-36 20 -60 22l-10 -4q-18 -12 -38 -38h-14l-11 217h17q26 -98 101 -157q57 -44 122 -44q90 0 118 65q10 23 10 52q0 87 -96 140q-22 12 -127 56q-102 43 -134 88
q-23 33 -23 75l3 33q17 76 95 121q53 30 112 30q63 0 106 -29q24 -15 41 -15h6q17 1 45 39q2 2 3 4h14l13 -221h-17q-29 109 -100 165q-47 37 -102 37q-67 0 -107 -52q-27 -34 -27 -77q0 -66 87 -115q14 -7 119 -55q108 -49 142 -100q24 -36 24 -81z" />
    <glyph glyph-name="scaron" unicode="&#x161;" horiz-adv-x="377" 
d="M85 647h25l76 -58h8l76 58h23l-95 -94h-17zM341 119q0 -69 -76 -107q-36 -17 -77 -21l-32 1q-37 6 -104 34v110l7 3q7 -58 53 -99q32 -29 69 -29q7 0 14 1q60 10 78 56q5 14 5 32q-1 35 -57 65l-92 45q-89 51 -90 137l3 27q16 57 89 84q31 12 64 14l34 -2q37 -6 92 -30
v-110l-6 -3q-13 70 -59 104q-25 18 -54 18q-66 0 -90 -39q-7 -12 -8 -27l2 -21q10 -32 71 -64q76 -39 88 -47q76 -51 76 -132z" />
    <glyph glyph-name="Ydieresis" unicode="&#x178;" horiz-adv-x="605" 
d="M648 633h-35q-42 0 -116 -97q-4 -6 -8 -11l-137 -188v-273q0 -24 21 -34q6 -3 13 -3h53v-27h-256v27h53q21 0 32 23q4 7 4 14v270l-149 254q-22 38 -55 46q-6 2 -12 2h-8v25h215v-28h-29q-34 0 -35 -20l4 -18q3 -5 6 -11l132 -227l103 147q45 62 45 99q0 30 -37 30h-26
v28h222v-28zM416 696q-32 0 -40 30l-1 19q12 31 41 35q33 0 40 -30l1 -19q-4 -29 -33 -34q-4 -1 -8 -1zM244 696q-32 0 -40 30l-1 19q12 31 41 35q33 0 40 -30l1 -19q-4 -29 -33 -34q-4 -1 -8 -1z" />
    <glyph glyph-name="Zdotaccent" unicode="&#x17b;" horiz-adv-x="576" 
d="M370 751q0 30 -28 36l-17 1q-28 -5 -30 -37q0 -29 28 -36h18q29 6 29 36zM566 206l-59 -206h-458v21l399 612h-170q-64 0 -122 -48q-38 -32 -49 -70l-13 -46h-25l45 192h432v-22l-391 -611h184q76 0 141 69q27 28 42 60l22 47z" />
    <glyph glyph-name="Zcaron" unicode="&#x17d;" horiz-adv-x="576" 
d="M221 786h25l76 -58h8l76 58h23l-95 -94h-17zM566 206l-59 -206h-458v21l399 612h-170q-64 0 -122 -48q-38 -32 -49 -70l-13 -46h-25l45 192h432v-22l-391 -611h184q76 0 141 69q27 28 42 60l22 47z" />
    <glyph glyph-name="zcaron" unicode="&#x17e;" horiz-adv-x="409" 
d="M103 656h25l76 -58h8l76 58h23l-95 -94h-17zM389 463l-273 -442h112q54 0 100 64q17 23 25 47l18 -7l-38 -127h-321l270 444h-121q-48 0 -79 -68q-13 -27 -16 -53l-19 10l23 132h319z" />
    <glyph glyph-name="florin" unicode="&#x192;" horiz-adv-x="272" 
d="M282 615l-3 -15q-9 -20 -34 -20l-17 3q-26 11 -26 45q0 10 6 21l-16 3q-23 -2 -27 -26q-1 -4 -1 -7v-184h53v-21h-53v-474q0 -46 -56 -76q-35 -19 -69 -19q-53 0 -70 32q-4 8 -4 18l3 15q9 19 34 20l18 -4q25 -11 25 -44q0 -10 -6 -21l16 -3q23 2 27 26q1 4 1 7v523h-45
v21h45v135q0 46 56 76q35 19 69 19q53 0 70 -32q4 -8 4 -18z" />
    <glyph glyph-name="uni0198" unicode="&#x198;" horiz-adv-x="662" 
d="M680 593l2 -25q-2 -41 -37 -53q-2 0 -4 -1l-15 -1q-23 3 -24 30l3 18q8 22 32 28h19l2 -1l-2 10q-10 16 -30 20q-3 1 -5 1h-28q-69 0 -219 -166l-30 -34l236 -354q14 -21 38 -34q8 -4 14 -4h37v-27h-220v27h30q15 0 15 13l-4 17q-2 5 -5 10l-196 290l-82 -80v-214
q0 -24 21 -34q6 -3 13 -3h53v-26h-255v26h52q22 0 33 23q3 7 3 14v535q0 22 -21 33q-8 4 -15 4h-52v26h255v-26h-53q-22 0 -31 -24q-3 -6 -3 -13v-288l253 259q71 71 156 71l25 -6q32 -11 39 -41z" />
    <glyph glyph-name="circumflex" unicode="&#x2c6;" 
d="M38 368h38l115 115h11l116 -115h34l-144 187h-25z" />
    <glyph glyph-name="tilde" unicode="&#x2dc;" horiz-adv-x="732" 
d="M283 706h12q22 34 60 35q11 0 31 -17t43 -18l17 3q31 12 39 52l1 21h-7q-20 -27 -52 -30l-12 3l-38 26q-9 5 -19 5q-38 -1 -62 -39q-12 -20 -13 -41z" />
    <glyph glyph-name="uni0312" unicode="&#x312;" 
d="M-178 730l-3 -14q1 -4 11 -4q46 0 69 -37q10 -17 10 -37q0 -45 -39 -67q-17 -10 -37 -10q-43 0 -69 45q-18 31 -18 71q0 65 62 103q35 22 81 28l14 -1q7 -3 8 -10l-3 -8q-6 -7 -17 -7l-19 -4q-36 -12 -47 -38q-2 -5 -3 -10z" />
    <glyph glyph-name="uni0313" unicode="&#x313;" 
d="M-116 662l3 14q-1 4 -11 4q-46 0 -69 37q-10 17 -10 37q0 45 39 67q17 10 37 10q43 0 69 -45q18 -31 18 -71q0 -65 -62 -103q-35 -22 -81 -28l-14 1q-7 3 -8 10l3 8q6 7 17 7l19 4q36 12 47 38q2 5 3 10z" />
    <glyph glyph-name="uni0333" unicode="&#x333;" 
d="M-20 -98v48h-360v-48h360zM-20 -186v48h-360v-48h360z" />
    <glyph glyph-name="uni0334" unicode="&#x334;" 
d="M-65 374l-2 -26q-10 -44 -44 -58q-9 -3 -20 -3q-26 1 -54 24q-17 15 -30 15q-40 0 -63 -32q-1 -3 -3 -5h-16q1 47 42 76q21 15 43 16q17 0 50 -24q18 -14 29 -14q33 2 53 27l4 4h11z" />
    <glyph glyph-name="uni0335" unicode="&#x335;" 
d="M-53 307h-215v49h215v-49z" />
    <glyph glyph-name="uni0336" unicode="&#x336;" 
d="M-20 314h-360v47h360v-47z" />
    <glyph glyph-name="uni033F" unicode="&#x33f;" 
d="M-20 811v47h-360v-47h360zM-20 723v47h-360v-47h360z" />
    <glyph glyph-name="uni0343" unicode="&#x343;" 
d="M-116 662l3 14q-1 4 -11 4q-46 0 -69 37q-10 17 -10 37q0 45 39 67q17 10 37 10q43 0 69 -45q18 -31 18 -71q0 -65 -62 -103q-35 -22 -81 -28l-14 1q-7 3 -8 10l3 8q6 7 17 7l19 4q36 12 47 38q2 5 3 10z" />
    <glyph glyph-name="uni04ED" unicode="&#x4ed;" horiz-adv-x="512" 
d="M340 244h-103q-35 0 -58 31q-11 15 -11 33v13h-16v-178h16v12q0 37 36 58q16 10 33 10h103q-1 -116 -53 -174q-31 -35 -76 -35q-66 0 -120 51q-17 16 -29 35q-19 28 -28 60h-13l30 -154h17l2 12q6 14 20 14q18 0 62 -20q29 -13 50 -13l47 2q140 17 169 173q5 24 6 52
l-2 45q-13 102 -91 161q-58 43 -137 43q-45 0 -82 -29q-13 -11 -22 -11q-12 1 -33 30h-12l-7 -153h12q4 14 9 27q52 120 137 122q72 0 114 -88q27 -58 30 -129zM281 535q-32 0 -40 30l-1 19q12 31 41 35q33 0 40 -30l1 -19q-4 -29 -33 -34q-4 -1 -8 -1zM109 535
q-32 0 -40 30l-1 19q12 31 41 35q33 0 40 -30l1 -19q-4 -29 -33 -34q-4 -1 -8 -1z" />
    <glyph glyph-name="uni0E0D" unicode="&#xe0d;" horiz-adv-x="757" 
d="M550 -160q52 2 97 76q6 11 17 30q7 -7 7 -24q0 -88 -66 -134q-42 -29 -98 -29q-70 0 -115 45q-31 31 -31 74q0 59 46 86q21 12 44 12q10 0 20 -2q63 -14 74 -85q2 -9 5 -49zM353 -3l-2 6q0 2 15 41q4 10 6 18q7 35 7 108v289q0 3 -24 32q-3 4 -5 7q-38 38 -120 38
q-25 0 -50 -13q-12 -6 -12 -13l34 -56q11 -23 11 -42q-70 -9 -73 -96l1 -48q0 -58 3 -83l36 21q7 2 14 2q42 0 68 -58q11 -26 11 -45q0 -61 -56 -91q-27 -14 -58 -14q-38 0 -77 28q-31 23 -31 52v270q0 37 44 87l13 13q-7 15 -46 34q-36 18 -47 36q26 12 100 57
q70 44 136 46h10q94 0 155 -56q52 -47 53 -120l-3 -367q12 -11 74 -11q71 0 85 17q10 11 10 46l-1 65v234q0 75 33 146q29 62 72 76q-4 -23 -14 -53l-9 -502q-3 -108 -126 -108q-194 0 -237 7zM182 114q0 12 -15 17q-3 1 -5 1q-17 0 -21 -15q-1 -2 -1 -5q0 -24 23 -24
q11 0 17 16q2 5 2 10z" />
    <glyph glyph-name="endash" unicode="&#x2013;" horiz-adv-x="501" 
d="M0 254v-51h455v51h-455z" />
    <glyph glyph-name="emdash" unicode="&#x2014;" horiz-adv-x="1000" 
d="M35 254v-51h866v51h-866z" />
    <glyph glyph-name="quoteleft" unicode="&#x2018;" horiz-adv-x="220" 
d="M9 539q-10 -14 -10 -32q0 -35 32 -47q8 -3 18 -4l22 2q33 9 36 44l-2 19q-5 18 -20 28q-3 5 -3 11q0 5 1 10q1 10 16 25q12 10 25 14l-12 15q-34 -10 -41 -13q-26 -13 -44 -39q-10 -13 -18 -33z" />
    <glyph glyph-name="quoteright" unicode="&#x2019;" horiz-adv-x="220" 
d="M157 543q12 16 12 36q0 31 -26 44q-12 7 -28 8l-23 -2q-35 -9 -39 -45l2 -22q6 -20 23 -30q3 -5 3 -10q0 -1 -1 -12q-2 -15 -18 -27q-11 -10 -26 -14l13 -15q28 6 42 13q26 13 47 41q10 12 19 35z" />
    <glyph glyph-name="quotesinglbase" unicode="&#x201a;" horiz-adv-x="203" 
d="M146 5q11 15 11 34q0 23 -15 38q-13 14 -35 15l-20 -2q-32 -9 -37 -44l1 -22q5 -20 22 -30q3 -5 3 -11q0 -1 -1 -11q-2 -14 -18 -27q-12 -11 -26 -14l13 -16q19 4 36 13q26 13 48 41q13 19 18 36z" />
    <glyph glyph-name="quotedblleft" unicode="&#x201c;" horiz-adv-x="315" 
d="M9 539q-10 -14 -10 -32q0 -35 32 -47q8 -3 18 -4l22 2q33 9 36 44l-2 19q-5 18 -20 28q-3 5 -3 11q0 5 1 10q1 10 16 25q12 10 25 14l-12 15q-34 -10 -41 -13q-26 -13 -44 -39q-10 -13 -18 -33zM132 539q-10 -14 -10 -32q0 -35 32 -47q8 -3 18 -4l22 2q33 9 36 44l-2 19
q-5 18 -20 28q-3 5 -3 11q0 5 1 10q1 10 16 25q12 10 25 14l-12 15q-34 -10 -41 -13q-26 -13 -44 -39q-10 -13 -18 -33z" />
    <glyph glyph-name="quotedblright" unicode="&#x201d;" horiz-adv-x="315" 
d="M151 543q11 14 11 34l-3 20q-11 32 -47 34l-20 -2q-33 -9 -37 -45l1 -22q5 -20 22 -30q3 -5 3 -10q0 -1 -1 -12q-2 -15 -18 -27q-11 -10 -26 -14l13 -15q19 4 36 13q26 13 47 41q10 12 19 35zM274 543q11 14 11 34l-3 20q-11 32 -47 34l-20 -2q-33 -9 -37 -45l1 -22
q5 -20 22 -30l3 -10q0 -3 -2 -12q-1 -13 -17 -27q-14 -11 -26 -14l13 -15q17 3 36 13q26 13 47 41q10 12 19 35z" />
    <glyph glyph-name="quotedblbase" unicode="&#x201e;" horiz-adv-x="279" 
d="M146 5q11 15 11 34q0 23 -15 38q-13 14 -35 15l-20 -2q-32 -9 -37 -44l1 -22q5 -20 22 -30q3 -5 3 -11q0 -1 -1 -11q-2 -14 -18 -27q-12 -11 -26 -14l13 -16q19 4 36 13q26 13 48 41q13 19 18 36zM264 5q11 15 11 34q0 23 -15 38q-13 14 -35 15l-20 -2q-32 -9 -37 -44
l1 -22q5 -20 22 -30q3 -5 3 -11q0 -1 -1 -11q-2 -14 -18 -27q-12 -11 -26 -14l13 -16q19 4 36 13q26 13 48 41q13 19 18 36z" />
    <glyph glyph-name="dagger" unicode="&#x2020;" horiz-adv-x="373" 
d="M185 487q-1 6 -19 77q-9 33 -9 51q0 39 35 39t35 -40q0 -20 -21 -98q-5 -19 -6 -29q14 1 82 20q26 8 40 8q13 0 21 -5q11 -8 11 -30q0 -35 -31 -34q-13 0 -78 18q-29 8 -46 9q1 -33 22 -99q15 -46 15 -81q0 -79 -22 -225q-12 -81 -20 -81h-4q-15 0 -35 196q-8 74 -8 104
q0 36 22 108q15 47 16 78q-15 -1 -84 -20q-26 -7 -40 -7l-17 3q-15 6 -15 31q0 34 31 34q14 1 78 -18q30 -8 47 -9z" />
    <glyph glyph-name="daggerdbl" unicode="&#x2021;" horiz-adv-x="373" 
d="M184 109q0 5 -17 80q-7 31 -7 49q0 38 31 38q32 0 32 -41l-4 -41l-19 -85q9 1 83 17q24 5 37 5q15 0 23 -5q11 -7 11 -24l-3 -16q-6 -13 -29 -13q-12 0 -82 15q-25 6 -41 7q1 -18 18 -94q6 -26 6 -39q0 -17 -6 -25q-8 -9 -26 -9q-31 0 -31 33q0 12 17 84q7 31 8 50
q-13 -1 -85 -16q-24 -6 -38 -5q-30 0 -31 28q1 29 33 29q12 0 80 -15q24 -6 40 -7zM184 487q0 5 -17 80q-7 31 -7 49q0 38 31 38q32 0 32 -41l-4 -41l-19 -85q9 1 83 17q24 5 37 5q15 0 23 -5q11 -7 11 -24l-3 -16q-6 -13 -29 -13q-12 0 -82 15q-25 6 -41 7q1 -18 18 -94
q6 -26 6 -39q0 -17 -6 -25q-8 -9 -26 -9q-31 0 -31 33q0 12 17 84q7 31 8 50q-13 -1 -85 -16q-24 -6 -38 -5q-30 0 -31 28q1 29 33 29q12 0 80 -15q24 -6 40 -7z" />
    <glyph glyph-name="bullet" unicode="&#x2022;" horiz-adv-x="208" 
d="M104 319q-54 -4 -70 -52q-4 -12 -4 -25q0 -25 13 -45q21 -34 63 -34h7q54 4 70 52q4 12 4 25q0 25 -13 45q-21 34 -63 34h-7z" />
    <glyph glyph-name="ellipsis" unicode="&#x2026;" horiz-adv-x="857" 
d="M55 79q0 48 37 70q16 10 35 10q44 0 67 -39q11 -19 11 -41q0 -45 -38 -68q-17 -11 -37 -11q-44 0 -65 40q-10 18 -10 39zM314 79q0 49 39 71q15 9 34 9q43 0 66 -39q11 -19 11 -41q0 -46 -39 -69q-16 -10 -36 -10q-43 0 -65 40q-10 18 -10 39zM577 79q0 48 37 70
q16 10 35 10q44 0 67 -39q11 -19 11 -41q0 -45 -38 -68q-17 -11 -37 -11q-44 0 -65 40q-10 18 -10 39z" />
    <glyph glyph-name="perthousand" unicode="&#x2030;" horiz-adv-x="1530" 
d="M1112 204q0 -102 53 -160q31 -35 70 -35q58 0 95 70q28 54 28 125q0 102 -52 160q-32 36 -71 36q-57 0 -94 -70q-29 -55 -29 -126zM1027 206q0 97 73 160q58 51 135 51q95 0 158 -72q51 -60 51 -139q0 -97 -73 -160q-59 -51 -136 -51q-95 0 -157 72q-51 60 -51 139z
M176 3l540 707q8 10 19 10l9 -2q4 -3 5 -9l-4 -11q-1 -3 -3 -5l-544 -707q-8 -10 -17 -11l-7 3q-4 3 -4 10t6 15zM585 204q0 -102 53 -160q31 -35 70 -35q58 0 95 70q28 54 28 125q0 102 -52 160q-32 36 -71 36q-57 0 -94 -70q-29 -55 -29 -126zM499 206q0 97 73 160
q59 51 136 51q95 0 157 -72q51 -60 51 -139q0 -97 -73 -160q-58 -51 -135 -51q-95 0 -158 72q-51 60 -51 139zM76 491q0 -102 52 -160q32 -36 71 -36q57 0 94 70q29 55 29 126q0 102 -52 160q-32 36 -71 36q-57 0 -94 -70q-29 -55 -29 -126zM-9 493q0 96 71 159
q59 52 137 52q95 0 158 -73q51 -59 51 -138q0 -97 -73 -160q-59 -51 -136 -51q-95 0 -157 72q-51 60 -51 139z" />
    <glyph glyph-name="guilsinglleft" unicode="&#x2039;" horiz-adv-x="524" 
d="M457 566v-63l-329 -165v-15l329 -174v-64l-414 228v38z" />
    <glyph glyph-name="guilsinglright" unicode="&#x203a;" horiz-adv-x="572" 
d="M80 565v-63l330 -164v-16l-330 -174v-64l415 228v38z" />
    <glyph glyph-name="Euro" unicode="&#x20ac;" horiz-adv-x="658" 
d="M593 591l-27 -19q-66 80 -183 80q-136 0 -196 -181q-11 -35 -19 -75h391l-15 -30h-379q-1 -17 -1 -52h355l-15 -30h-337q21 -137 91 -210q53 -56 125 -56q118 0 187 79q6 7 11 14l22 -20q-81 -98 -220 -101l-60 3q-196 21 -242 229q-6 29 -10 62h-59l15 30h42l1 49v3h-58
l15 30h46q19 132 112 212q83 71 198 71q127 0 210 -88z" />
    <glyph glyph-name="trademark" unicode="&#x2122;" horiz-adv-x="699" 
d="M281 653h-10q-9 38 -47 52q-12 4 -24 4h-32q-14 0 -15 -20v-205q0 -12 14 -15h21v-11h-102v11h21q11 0 14 15v205q0 20 -15 20h-16q-55 0 -73 -42l-4 -14h-10l23 70h232zM622 458h-103v11h22q11 0 14 14v218l-92 -243h-23l-94 237v-189q0 -26 17 -35q4 -2 9 -2h15v-11
h-95v11h19q20 0 25 28q1 5 1 9v191q0 10 -14 14h-21v11h69l94 -239l92 239h65v-11h-21q-12 0 -14 -14v-214q0 -12 14 -14h21v-11z" />
  </font>
</defs>
</svg>
